<svg width="24" height="24" viewBox="0 0 24 24" fill="none" xmlns="http://www.w3.org/2000/svg">
<path d="M20.25 20.2501V10.8319C20.25 10.7274 20.2282 10.624 20.1859 10.5284C20.1436 10.4329 20.0818 10.3472 20.0045 10.2769L12.504 3.45799C12.3659 3.33248 12.186 3.26293 11.9995 3.26294C11.8129 3.26295 11.633 3.3325 11.4949 3.45803L3.99545 10.2769C3.91814 10.3472 3.85637 10.4329 3.8141 10.5284C3.77183 10.624 3.75 10.7273 3.75 10.8318V20.2501" stroke="#FCF8F4" stroke-width="1.5" stroke-linecap="round" stroke-linejoin="round"/>
<path d="M1.5 20.25H22.5" stroke="#FCF8F4" stroke-width="1.5" stroke-linecap="round" stroke-linejoin="round"/>
<path d="M14.2494 20.2493V14.9993C14.2494 14.8004 14.1704 14.6096 14.0297 14.4689C13.8891 14.3283 13.6983 14.2493 13.4994 14.2493H10.4994C10.3005 14.2493 10.1097 14.3283 9.96906 14.4689C9.82841 14.6096 9.74939 14.8004 9.74939 14.9993V20.2493" stroke="#FCF8F4" stroke-width="1.5" stroke-linecap="round" stroke-linejoin="round"/>
</svg>
