<svg width="32" height="32" viewBox="0 0 32 32" fill="none" xmlns="http://www.w3.org/2000/svg">
<path fill-rule="evenodd" clip-rule="evenodd" d="M0 16C0 7.16344 7.16344 0 16 0C24.8366 0 32 7.16344 32 16C32 24.8366 24.8366 32 16 32C7.16344 32 0 24.8366 0 16ZM15.9769 11.7476C17.277 11.7476 18.1539 12.3099 18.6539 12.7799L20.6078 10.8693C19.4078 9.7523 17.8462 9.06667 15.9769 9.06667C13.2691 9.06667 10.9306 10.6228 9.79207 12.8877L12.0306 14.6287C12.5922 12.957 14.1461 11.7476 15.9769 11.7476ZM22.6233 16.1541C22.6233 15.584 22.5772 15.168 22.4771 14.7366H15.9769V17.3096H19.7924C19.7155 17.949 19.3001 18.912 18.377 19.5591L20.5617 21.2539C21.8694 20.0444 22.6233 18.2649 22.6233 16.1541ZM12.0383 17.3713C11.8921 16.9399 11.8075 16.4776 11.8075 16C11.8075 15.5224 11.8921 15.0601 12.0306 14.6287L9.79207 12.8877C9.32282 13.8276 9.05358 14.883 9.05358 16C9.05358 17.117 9.32282 18.1724 9.79207 19.1123L12.0383 17.3713ZM15.9769 22.9333C17.8462 22.9333 19.4155 22.317 20.5617 21.2539L18.377 19.5591C17.7924 19.9674 17.0077 20.2524 15.9769 20.2524C14.1461 20.2524 12.5922 19.043 12.0383 17.3713L9.79976 19.1123C10.9383 21.3772 13.2691 22.9333 15.9769 22.9333Z" fill="#24160B" fill-opacity="0.6"/>
</svg>
