<svg width="66" height="66" viewBox="0 0 66 66" fill="none" xmlns="http://www.w3.org/2000/svg">
<path d="M53.625 26.8125C53.625 45.375 33 59.8125 33 59.8125C33 59.8125 12.375 45.375 12.375 26.8125C12.375 21.3424 14.548 16.0964 18.4159 12.2284C22.2839 8.36048 27.5299 6.1875 33 6.1875C38.4701 6.1875 43.7161 8.36048 47.5841 12.2284C51.452 16.0964 53.625 21.3424 53.625 26.8125V26.8125Z" fill="#37210D" stroke="#999A81" stroke-linecap="round" stroke-linejoin="round"/>
<path d="M33 35.0625C37.5563 35.0625 41.25 31.3688 41.25 26.8125C41.25 22.2562 37.5563 18.5625 33 18.5625C28.4437 18.5625 24.75 22.2562 24.75 26.8125C24.75 31.3688 28.4437 35.0625 33 35.0625Z" fill="#D9D9D9" stroke="#999A81" stroke-linecap="round" stroke-linejoin="round"/>
</svg>
