<svg width="32" height="32" viewBox="0 0 32 32" fill="none" xmlns="http://www.w3.org/2000/svg">
<path fill-rule="evenodd" clip-rule="evenodd" d="M16 0C7.16344 0 0 7.16344 0 16C0 24.8366 7.16344 32 16 32C24.8366 32 32 24.8366 32 16C32 7.16344 24.8366 0 16 0ZM6.66667 15.9735C6.66667 10.8417 10.8535 6.66667 15.9999 6.66667C21.1462 6.66667 25.3331 10.8417 25.3331 15.9735C25.3331 16.7005 25.2725 17.2891 25.1365 17.8798L25.1345 17.8896C25.1342 17.8913 25.0667 18.1636 25.0295 18.2825C24.7988 19.0181 24.3812 19.6308 23.8217 20.0543C23.2791 20.4651 22.6063 20.6914 21.9274 20.6914C21.8435 20.6914 21.759 20.688 21.6763 20.6814C20.7121 20.6042 19.8644 20.0983 19.3446 19.2915C18.4505 20.188 17.2642 20.6812 15.9999 20.6812C13.3968 20.6812 11.279 18.5694 11.279 15.9735C11.279 13.3777 13.3968 11.266 15.9999 11.266C18.603 11.266 20.7208 13.3777 20.7208 15.9735V17.4911C20.7247 18.3765 21.3206 18.7385 21.8296 18.7794C22.3361 18.8184 23.0101 18.5242 23.2449 17.564C23.3607 17.0375 23.4196 16.5022 23.4196 15.9735C23.4196 11.8938 20.0911 8.57475 15.9999 8.57475C11.9086 8.57475 8.5802 11.8938 8.5802 15.9735C8.5802 20.0532 11.9086 23.3723 15.9999 23.3723C17.424 23.3723 18.8091 22.9668 20.0053 22.1994L20.0267 22.1856L21.2841 23.6433L21.2571 23.6617C19.7033 24.7207 17.8853 25.2805 15.9999 25.2805C10.8535 25.2805 6.66667 21.1054 6.66667 15.9735Z" fill="#24160B" fill-opacity="0.6"/>
<path fill-rule="evenodd" clip-rule="evenodd" d="M18.8072 15.9735C18.8072 17.5172 17.5478 18.7731 15.9999 18.7731C14.4518 18.7731 13.1925 17.5172 13.1925 15.9735C13.1925 14.4299 14.4518 13.1741 15.9999 13.1741C17.5478 13.1741 18.8072 14.4299 18.8072 15.9735Z" fill="#24160B" fill-opacity="0.6"/>
</svg>
