<?xml version="1.0" encoding="UTF-8"?><svg id="_лой_2" xmlns="http://www.w3.org/2000/svg" viewBox="0 0 520.44 104.31"><defs><style>.cls-1{fill:#1d1d1b;}</style></defs><g id="_лой_1-2"><g><path class="cls-1" d="M66.55,60.21c0-5.38-2.41-14.93-5.22-27.21-3.13-13.65-5.7-22.72-7.14-27.46-5.54,19.67-11.16,39.25-16.7,58.92,0,0-1.45-12.04-5.86-31.47-3.05-13.57-5.7-22.64-7.14-27.38L9.31,59.73c-.08,.32-.16,.56-.16,.8,0,2.73,3.93,4.09,3.93,4.09H0s4.33-2.49,5.38-5.3c1.77-4.98,5.14-14.53,8.91-27.45,3.85-13.25,6.1-22.24,6.98-26.65,0-.16,.08-.24,.08-.4,0-2.01-3.05-3.37-3.05-3.37h18.62s-3.13,.88-3.13,3.69v.56c.72,4.74,2.25,13.65,5.38,27.29,.64,2.89,1.29,5.86,1.85,8.27,.8-2.49,1.61-5.14,2.41-7.95,4.25-14.53,7.39-24.24,7.39-28.42,0-2.25-2.81-3.45-2.81-3.45h18.7s-3.21,.88-3.21,3.69v.56c.72,4.74,2.25,13.65,5.38,27.29,2.81,12.52,5.46,22,6.98,27.13,.96,3.21,3.69,4.42,3.69,4.42h-16.86s3.85-1.85,3.85-4.33Z"/><path class="cls-1" d="M113.59,.4c14.93,0,28.34,10.36,31.63,25.53,.48,2.33,.8,4.58,.8,6.9,0,14.93-10.36,28.34-25.53,31.63-2.33,.48-4.58,.8-6.9,.8-14.93,0-28.34-10.36-31.63-25.53-.48-2.33-.8-4.58-.8-6.9,0-14.93,10.36-28.34,25.53-31.63,2.33-.48,4.58-.8,6.9-.8Zm24.73,35.32c0-8.67-3.13-16.22-6.74-21.67-4.58-6.18-11.88-10.76-19.83-10.76-1.45,0-2.89,.08-4.33,.4-9.23,2.01-15.73,10.44-17.5,19.19-.4,2.41-.64,4.9-.64,7.39s.24,5.22,.8,7.87c1.04,4.74,2.89,9.23,5.46,13,4.33,6.58,11.96,11.24,19.99,11.24,1.45,0,2.89-.16,4.42-.48,9.55-2.09,16.3-10.68,17.82-19.83,.4-2.17,.56-4.25,.56-6.34Z"/><path class="cls-1" d="M165.85,1.36c5.54,0,11.24,.08,17.98,.08,16.86,0,29.86,14.85,29.86,31.55,0,18.38-15.09,31.55-32.75,31.55h-27.7s2.49-1.44,2.73-2.49c.32-3.93,1.04-13.41,1.04-29.22,0-14.05-.64-24.16-1.04-28.74-.24-1.36-2.73-2.65-2.73-2.65h2.49l9.47-.08h.64Zm39.74,31.15c0-4.33-.88-8.43-2.25-12.76-2.49-8.35-10.6-15.73-19.83-15.81h-17.9c-.4,4.58-1.04,14.93-1.04,28.9,0,15.81,.64,25.29,1.04,29.22h14.93c9.63-.08,18.22-5.94,21.83-14.29,1.61-3.61,3.21-9.71,3.21-15.25Z"/><path class="cls-1" d="M264.03,58.36c.48,3.29,1.45,7.22,1.45,7.22,0,0-5.94-1.04-14.21-1.04l-30.34,.08s2.57-1.53,2.81-2.57c.32-3.93,.96-13.41,.96-29.22,0-13.97-.64-24.16-.96-28.66-.24-1.45-2.81-2.73-2.81-2.73h30.34c8.27,0,14.21-1.04,14.21-1.04,0,0-.96,4.01-1.45,7.22-.48,4.01-.56,11.16-.56,11.16,0,0-3.29-14.61-12.76-14.61h-17.42c-.32,4.5-.96,14.29-1.04,27.45h11.88c6.82-.16,8.59-4.33,8.59-4.33v11.48s-1.77-4.17-8.27-4.42h-12.2c.08,14.85,.72,23.84,1.04,27.7h17.5c9.39-.08,12.68-14.77,12.68-14.77,0,0,.08,7.06,.56,11.08Z"/><path class="cls-1" d="M312.36,61.57c0-.4-.24-.8-.56-1.28-.08-.08-.08-.16-.08-.24l-21.11-26.33-5.46,.08c0,12.12,.4,20.55,.72,25.45,.24,2.73,3.93,5.3,3.93,5.3l-16.86,.08s3.53-1.61,3.85-4.9c.4-4.9,.8-13.65,.8-26.73s-.48-21.84-.88-26.97c-.4-3.13-4.01-4.5-4.01-4.5h9.55l15.65-.08c8.83,0,16.14,7.3,16.14,16.14s-6.42,15.33-14.69,15.97l20.79,25.93c3.45,3.69,7.39,5.14,7.39,5.14h-18.7s3.53-1.12,3.53-3.05Zm-18.94-57.48c-2.33,0-4.82,.16-6.98,.32-.4,.64-.72,1.28-.8,2.01-.48,3.93-.48,11.64-.48,19.99v4.74c2.73,0,6.34-.08,9.95-.08,6.82,0,12.52-6.66,12.52-13.49s-5.38-13.17-12.2-13.49h-2.01Z"/><path class="cls-1" d="M374.74,64.54l-27.05-56.19c-.32,5.46-.72,13.81-.72,24.48,0,13.41,.48,22.24,.88,27.05,.24,3.37,3.77,4.66,3.77,4.66h-16.78s3.45-2.01,3.69-4.66c.48-4.82,.88-13.73,.88-27.05,0-12.52-.56-22-.88-27.13-.16-2.65-3.77-4.25-3.77-4.25h13.49c0,.96,4.5,11.72,13.73,30.83,5.38,11.08,10.12,19.67,13.41,25.21,.32-5.14,.64-13.25,.64-24.64,0-12.52-.48-22-.88-27.13-.16-2.65-3.69-4.25-3.69-4.25h16.78s-3.53,.88-3.77,4.25c-.4,5.06-.88,14.53-.88,27.13,0,13.41,.48,22.24,.88,27.05,.24,3.37,3.77,4.66,3.77,4.66h-13.49Z"/><path class="cls-1" d="M400.91,32.99c0-12.6-.48-22.16-.88-27.21-.24-3.37-3.69-4.33-3.69-4.33h16.78c-.08,.08-3.45,1.69-3.69,4.42-.4,5.14-.96,14.69-.96,27.13,0,13.33,.4,22.24,.88,27.05,.24,2.65,3.85,4.58,3.85,4.58h-16.94s3.61-1.21,3.85-4.58c.4-4.82,.8-13.65,.8-27.05Z"/><path class="cls-1" d="M457.74,49.69c0,10.92-9.96,15.73-18.62,15.73-5.78,0-13.57-2.41-17.1-2.41-.72,0-1.28,.08-1.61,.32,0,0,1.12-4.42,1.28-10.11,.64,2.81,4.58,9.39,17.34,9.39,8.99,0,12.04-6.66,12.04-11.32,0-8.91-10.36-14.21-13.89-16.62-4.82-3.21-14.29-8.11-14.29-18.3,0-10.84,10.36-15.89,16.14-15.89,2.81,0,6.98,.4,10.2,.4,2.25,0,4.17-.16,4.9-.88,0,0-1.52,4.17-1.69,9.87-.72-4.82-5.62-6.58-13.33-6.58-4.98,0-9.63,4.01-9.63,11.56,0,8.43,12.28,13.57,15.41,15.49,4.98,3.05,12.84,8.19,12.84,19.35Z"/><path class="cls-1" d="M520.44,.8s-.96,3.93-1.36,7.14c-.56,4.01-.56,11.16-.56,11.16,0,0-3.37-14.93-12.76-14.93h-8.35c-.32,4.09-1.04,13.33-1.04,25.93v3.05c.08,13.08,.48,24.32,.88,26.97s3.77,4.5,3.77,4.5h-16.86s3.37-1.21,3.77-4.5c.48-4.42,.88-11.8,.88-22.64v-4.33c-.16-14.29-.72-24.56-1.04-28.98h-8.75c-8.99,.56-12.12,14.93-12.12,14.93,0,0,0-7.14-.56-11.16-.4-3.21-1.37-7.14-1.37-7.14,0,0,5.86,.64,14.13,.64h27.21c8.27,0,14.13-.64,14.13-.64Z"/></g><g><path class="cls-1" d="M178.65,89.68h2c.28,0,.45-.03,.51-.09l.17-.19c.06-.05,.13-.08,.21-.08,.12,0,.18,.06,.17,.18,0,.05-.04,.14-.09,.28l-.2,.5c-.11,.28-.26,.43-.46,.45h-2.31v6.78c0,.64,.09,1.07,.26,1.29,.17,.21,.55,.34,1.12,.38,.3,.03,.45,.11,.45,.26,0,.14-.11,.21-.34,.21-.09,0-.34-.02-.74-.06-.25-.02-.5-.03-.75-.03-1.06,0-1.74,.02-2.05,.07-.2,.03-.34,.04-.44,.04-.22,0-.33-.08-.33-.25,0-.11,.07-.19,.22-.24l.23-.07c.26-.08,.44-.23,.54-.46,.1-.22,.15-.58,.15-1.07v-6.86h-1.42c-.26,0-.39-.05-.38-.16,.02-.32,.08-.54,.18-.68,.1-.13,.26-.2,.47-.2h1.16c.12-1.99,.52-3.54,1.2-4.66,.55-.93,1.21-1.66,1.96-2.2,.76-.54,1.51-.81,2.25-.81s1.06,.15,1.06,.46c0,.09-.01,.18-.04,.28l-.14,.45c-.15,.54-.3,.82-.46,.82-.08,0-.15-.07-.21-.2-.17-.41-.6-.61-1.29-.61-1.81,0-2.71,1.73-2.71,5.18l.02,1.29Z"/><path class="cls-1" d="M191.42,98.04c-.94,1.22-2.09,1.83-3.44,1.83-1.14,0-2.03-.35-2.67-1.06s-.96-1.69-.96-2.95v-4.85c.01-.41-.07-.7-.24-.87s-.49-.26-.95-.28c-.2-.02-.3-.1-.29-.25,0-.14,.26-.23,.75-.25l.92-.04c.2-.02,.51-.07,.91-.17,.11-.03,.2-.05,.27-.05,.22,0,.33,.19,.33,.57v.18l-.05,5.46v.39l.2,1.48c.17,.52,.49,.95,.95,1.29s.97,.51,1.52,.51c.72,0,1.36-.21,1.91-.63s.84-.9,.84-1.44v-5.83c0-.46-.08-.78-.24-.95-.16-.17-.45-.26-.88-.26-.26,0-.39-.08-.39-.23,0-.18,.15-.28,.44-.29l.4-.02,.85-.04c.28-.02,.59-.08,.95-.2,.11-.03,.21-.05,.29-.06,.17,0,.26,.14,.26,.44v7.92c0,.63,.07,1.04,.2,1.24,.13,.2,.41,.3,.82,.3h.37c.18-.01,.27,.05,.28,.17,0,.18-.23,.28-.71,.3l-.77,.05c-.53,.02-.87,.06-1.03,.1-.2,.05-.35,.07-.45,.07-.26,0-.39-.38-.39-1.14v-.47Z"/><path class="cls-1" d="M200.16,91.54c.94-1.48,1.81-2.22,2.61-2.22,.25,0,.58,.15,1,.45,.41,.3,.62,.54,.64,.73,0,.12-.12,.34-.39,.67s-.46,.49-.57,.5c-.06,0-.24-.1-.54-.29-.35-.24-.68-.37-1-.37-.5,0-.91,.18-1.24,.54-.33,.36-.5,.81-.5,1.34v4.35c0,.68,.09,1.17,.28,1.46,.18,.29,.5,.45,.96,.49l.63,.05c.26,.02,.39,.1,.39,.24,0,.16-.11,.24-.34,.24-.06,0-.25-.02-.58-.06-.15-.02-.38-.02-.68-.02h-1.42c-.64-.01-1.09,0-1.36,.05-.21,.03-.36,.05-.44,.06-.22,0-.33-.07-.33-.24,0-.13,.13-.23,.38-.27,.35-.08,.58-.23,.68-.45,.1-.22,.15-.69,.15-1.4v-5.24c0-.94-.45-1.4-1.34-1.4h-.41c-.19,.01-.28-.07-.28-.24,0-.1,.06-.18,.18-.23,.07-.02,.16-.03,.27-.04,.77-.07,1.67-.43,2.71-1.07,.11-.06,.2-.09,.28-.1,.19,0,.28,.13,.28,.42v2.05Z"/><path class="cls-1" d="M209.33,91.26c1.09-1.29,2.22-1.94,3.39-1.94,1.3,0,2.33,.53,3.09,1.6,.52,.73,.78,1.85,.78,3.35v3.29l.02,.59c.09,.54,.43,.85,1.03,.94l.51,.07c.22,.03,.33,.11,.34,.24,0,.17-.13,.26-.4,.26-.09,0-.25-.01-.47-.04-.27-.04-.76-.06-1.49-.06l-1.21,.04h-.46l-.35,.02-.17-.04c-.06-.03-.08-.1-.08-.19,0-.12,.07-.2,.22-.24l.37-.1c.33-.08,.49-.37,.49-.88v-4.21c0-1.13-.26-2-.78-2.61-.52-.61-1.26-.92-2.23-.92-.68,0-1.28,.2-1.8,.6s-.79,.85-.79,1.37v5.03l.02,.61c.04,.68,.61,1.06,1.7,1.12,.27,.03,.4,.11,.4,.26s-.09,.23-.28,.23c-.14,0-.35-.02-.62-.07-.15-.02-.54-.03-1.15-.03-1.29,0-2.07,.02-2.32,.06-.25,.03-.42,.04-.49,.04-.15,0-.23-.07-.22-.2,0-.1,.08-.18,.23-.24,.42-.15,.69-.33,.84-.54,.14-.21,.21-.55,.21-1.02v-5.51c0-.58-.07-.97-.21-1.18s-.4-.31-.78-.31h-.52c-.07,.01-.14,0-.2-.04-.07-.03-.11-.09-.11-.18,0-.12,.11-.2,.32-.24,.54-.1,1.07-.26,1.57-.5l.65-.32c.25-.12,.41-.2,.48-.23,.11-.07,.21-.1,.29-.1,.15,0,.21,.12,.2,.35,0,.13-.01,.29-.01,.46v1.38Z"/><path class="cls-1" d="M223.61,97.58c0,.58,.06,.97,.19,1.16,.13,.2,.39,.32,.8,.38l.56,.06c.29,.04,.44,.14,.43,.31,0,.13-.12,.2-.33,.2-.14,0-.4-.02-.8-.06-.22-.02-.51-.03-.86-.03h-.78l-.89,.04c-.16,0-.29,.02-.38,.04-.21,.02-.36,.04-.44,.04-.22,0-.33-.07-.33-.22,0-.12,.07-.21,.22-.26l.23-.07c.26-.09,.44-.24,.54-.46,.1-.22,.15-.57,.15-1.06v-5.31c0-.67-.07-1.11-.2-1.32s-.41-.3-.84-.3c-.31,0-.46-.06-.45-.19,0-.11,.22-.23,.62-.36,.46-.15,1.04-.41,1.74-.78l.65-.3c.11,0,.16,.11,.16,.29v8.23Zm-.76-13.3c.2,0,.4,.16,.6,.49l.29,.47c.08,.11,.12,.22,.12,.31,0,.19-.13,.45-.42,.79-.29,.33-.52,.5-.69,.5s-.38-.16-.65-.49c-.27-.33-.41-.58-.41-.77s.15-.45,.45-.79,.53-.5,.69-.5Z"/><path class="cls-1" d="M230.2,90.79v6.14c0,.8,.11,1.31,.34,1.55,.33,.35,.81,.53,1.43,.53,.5,0,.92-.09,1.26-.27l.63-.3,.07-.02c.1,0,.15,.04,.15,.13,0,.27-.32,.56-.96,.87s-1.24,.47-1.79,.47c-1.87,0-2.81-.98-2.81-2.93v-6.16h-1.09c-.21,0-.32-.06-.32-.18,0-.11,.11-.26,.32-.44,.95-.81,1.68-1.62,2.18-2.42,.22-.36,.38-.54,.46-.54,.11,0,.17,.11,.17,.32l-.05,2.11h2.6c.36,0,.63-.07,.83-.2,.12-.09,.21-.14,.27-.15,.09-.02,.13,.03,.12,.13,0,.04-.04,.14-.11,.31l-.28,.7c-.09,.24-.27,.36-.54,.36h-2.89Z"/><path class="cls-1" d="M243.64,98.04c-.94,1.22-2.09,1.83-3.44,1.83-1.14,0-2.03-.35-2.67-1.06s-.96-1.69-.96-2.95v-4.85c.01-.41-.07-.7-.24-.87s-.49-.26-.95-.28c-.2-.02-.3-.1-.29-.25,0-.14,.26-.23,.75-.25l.92-.04c.2-.02,.51-.07,.91-.17,.11-.03,.2-.05,.27-.05,.22,0,.33,.19,.33,.57v.18l-.05,5.46v.39l.2,1.48c.17,.52,.49,.95,.95,1.29s.97,.51,1.52,.51c.72,0,1.36-.21,1.91-.63s.84-.9,.84-1.44v-5.83c0-.46-.08-.78-.24-.95-.16-.17-.45-.26-.88-.26-.26,0-.39-.08-.39-.23,0-.18,.15-.28,.44-.29l.4-.02,.85-.04c.28-.02,.59-.08,.95-.2,.11-.03,.21-.05,.29-.06,.17,0,.26,.14,.26,.44v7.92c0,.63,.07,1.04,.2,1.24,.13,.2,.41,.3,.82,.3h.37c.18-.01,.27,.05,.28,.17,0,.18-.23,.28-.71,.3l-.77,.05c-.53,.02-.87,.06-1.03,.1-.2,.05-.35,.07-.45,.07-.26,0-.39-.38-.39-1.14v-.47Z"/><path class="cls-1" d="M252.38,91.54c.94-1.48,1.81-2.22,2.61-2.22,.25,0,.58,.15,1,.45,.41,.3,.62,.54,.64,.73,0,.12-.12,.34-.39,.67s-.46,.49-.57,.5c-.06,0-.24-.1-.54-.29-.35-.24-.68-.37-1-.37-.5,0-.91,.18-1.24,.54-.33,.36-.5,.81-.5,1.34v4.35c0,.68,.09,1.17,.28,1.46,.18,.29,.5,.45,.96,.49l.63,.05c.26,.02,.39,.1,.39,.24,0,.16-.11,.24-.34,.24-.06,0-.25-.02-.58-.06-.15-.02-.38-.02-.68-.02h-1.42c-.64-.01-1.09,0-1.36,.05-.21,.03-.36,.05-.44,.06-.22,0-.33-.07-.33-.24,0-.13,.13-.23,.38-.27,.35-.08,.58-.23,.68-.45,.1-.22,.15-.69,.15-1.4v-5.24c0-.94-.45-1.4-1.34-1.4h-.41c-.19,.01-.28-.07-.28-.24,0-.1,.06-.18,.18-.23,.07-.02,.16-.03,.27-.04,.77-.07,1.67-.43,2.71-1.07,.11-.06,.2-.09,.28-.1,.19,0,.28,.13,.28,.42v2.05Z"/><path class="cls-1" d="M259.58,93.49v.27c-.01,1.39,.37,2.56,1.14,3.51,.77,.95,1.72,1.42,2.84,1.42,.89,0,1.85-.4,2.9-1.2,.07-.05,.13-.08,.18-.09,.11,0,.17,.06,.17,.19,0,.24-.28,.59-.85,1.03-1.06,.83-2.18,1.24-3.36,1.24-1.33,0-2.44-.5-3.34-1.51s-1.35-2.26-1.35-3.74,.46-2.65,1.39-3.71,2.01-1.59,3.26-1.59c1.36,0,2.45,.57,3.26,1.7,.2,.28,.39,.65,.6,1.12,.2,.47,.31,.8,.31,.99,0,.27-.26,.4-.79,.4h-.9l-.83-.04h-4.62Zm.07-.67h4.14c.64,0,.96-.13,.96-.39,0-.63-.27-1.22-.82-1.77-.55-.55-1.15-.82-1.79-.82s-1.22,.27-1.67,.8c-.44,.53-.72,1.26-.82,2.18Z"/><path class="cls-1" d="M278.99,89.68h2c.28,0,.45-.03,.51-.09l.17-.19c.06-.05,.13-.08,.21-.08,.12,0,.18,.06,.17,.18,0,.05-.04,.14-.09,.28l-.2,.5c-.11,.28-.26,.43-.46,.45h-2.31v6.78c0,.64,.09,1.07,.26,1.29,.17,.21,.55,.34,1.12,.38,.3,.03,.45,.11,.45,.26,0,.14-.11,.21-.34,.21-.09,0-.34-.02-.74-.06-.25-.02-.5-.03-.75-.03-1.06,0-1.74,.02-2.05,.07-.2,.03-.34,.04-.44,.04-.22,0-.33-.08-.33-.25,0-.11,.07-.19,.22-.24l.23-.07c.26-.08,.44-.23,.54-.46,.1-.22,.15-.58,.15-1.07v-6.86h-1.42c-.26,0-.39-.05-.38-.16,.02-.32,.08-.54,.18-.68,.1-.13,.26-.2,.47-.2h1.16c.12-1.99,.52-3.54,1.2-4.66,.55-.93,1.21-1.66,1.96-2.2,.76-.54,1.51-.81,2.25-.81s1.06,.15,1.06,.46c0,.09-.01,.18-.04,.28l-.14,.45c-.15,.54-.3,.82-.46,.82-.08,0-.15-.07-.21-.2-.17-.41-.6-.61-1.29-.61-1.81,0-2.71,1.73-2.71,5.18l.02,1.29Z"/><path class="cls-1" d="M289.08,94.19v-1.5c0-.93-.17-1.57-.53-1.93-.47-.49-1.11-.73-1.9-.73-1.07,0-1.61,.45-1.61,1.36,0,.27,.05,.57,.16,.92,.05,.15,.08,.27,.08,.39,0,.15-.07,.22-.24,.22-.38,0-.73-.08-1.04-.24-.31-.16-.47-.34-.47-.54,0-.5,.27-1.05,.82-1.63,.73-.79,1.71-1.18,2.92-1.18,1.11,0,1.96,.25,2.58,.74,.61,.49,.92,1.18,.92,2.08v4.78c0,.76,.09,1.29,.27,1.62,.18,.32,.49,.48,.92,.48,.12,0,.22,0,.29-.02,.15-.04,.24-.05,.29-.05,.14,0,.2,.05,.2,.17,0,.15-.2,.29-.58,.45-.38,.15-.74,.23-1.1,.23-.67,0-1.27-.42-1.81-1.25-1.18,.9-2.27,1.34-3.28,1.34-.76,0-1.37-.21-1.82-.62-.45-.41-.68-.96-.68-1.65,0-.94,.43-1.66,1.28-2.18s2.29-.93,4.32-1.24Zm0,.49c-1.26,.11-2.24,.4-2.92,.86-.69,.46-1.03,1.04-1.03,1.75,0,.56,.16,1,.49,1.33s.77,.49,1.33,.49c.68,0,1.25-.22,1.71-.67,.28-.28,.42-.73,.42-1.35v-2.42Z"/><path class="cls-1" d="M299.76,89.32c.7,0,1.32,.09,1.87,.27,.55,.18,.82,.38,.82,.6v.37l.07,.93c0,.43-.1,.66-.3,.67-.09,0-.21-.11-.35-.36-.26-.47-.7-.87-1.31-1.21-.61-.34-1.21-.51-1.78-.51-.8,0-1.45,.36-1.95,1.09-.5,.73-.75,1.66-.75,2.81,0,1.36,.39,2.51,1.16,3.44,.78,.94,1.72,1.41,2.84,1.41,.9,0,1.79-.37,2.66-1.11,.11-.09,.21-.14,.3-.15,.12-.02,.19,.04,.19,.17,0,.18-.2,.44-.59,.79-1.01,.91-2.22,1.36-3.64,1.36-1.3,0-2.39-.47-3.27-1.42-.88-.95-1.31-2.12-1.31-3.52,0-1.56,.52-2.89,1.56-3.98,1.04-1.09,2.29-1.64,3.77-1.64Z"/><path class="cls-1" d="M307.77,90.79v6.14c0,.8,.11,1.31,.34,1.55,.33,.35,.81,.53,1.43,.53,.5,0,.92-.09,1.26-.27l.63-.3,.07-.02c.1,0,.15,.04,.15,.13,0,.27-.32,.56-.96,.87s-1.24,.47-1.79,.47c-1.87,0-2.81-.98-2.81-2.93v-6.16h-1.09c-.21,0-.32-.06-.32-.18,0-.11,.11-.26,.32-.44,.95-.81,1.68-1.62,2.18-2.42,.22-.36,.38-.54,.46-.54,.11,0,.17,.11,.17,.32l-.05,2.11h2.6c.36,0,.63-.07,.83-.2,.12-.09,.21-.14,.27-.15,.09-.02,.13,.03,.12,.13,0,.04-.04,.14-.11,.31l-.28,.7c-.09,.24-.27,.36-.54,.36h-2.89Z"/><path class="cls-1" d="M318.24,89.32c1.46,0,2.72,.51,3.77,1.54,1.05,1.03,1.58,2.25,1.58,3.68,0,1.54-.52,2.82-1.55,3.83-1.03,1.01-2.34,1.51-3.92,1.51s-2.82-.49-3.81-1.47c-1-.98-1.5-2.23-1.5-3.76s.53-2.74,1.59-3.77c1.06-1.04,2.34-1.55,3.85-1.55Zm-.31,.49c-1.02,0-1.83,.38-2.46,1.13-.62,.75-.93,1.74-.93,2.96,0,1.55,.39,2.85,1.16,3.9,.78,1.05,1.74,1.57,2.89,1.57,1.01,0,1.8-.37,2.38-1.11,.58-.74,.87-1.75,.87-3.01,0-1.6-.37-2.91-1.1-3.92-.73-1.01-1.67-1.51-2.83-1.51Z"/><path class="cls-1" d="M329.25,91.54c.94-1.48,1.81-2.22,2.61-2.22,.25,0,.58,.15,1,.45,.41,.3,.62,.54,.64,.73,0,.12-.12,.34-.39,.67s-.46,.49-.57,.5c-.06,0-.24-.1-.54-.29-.35-.24-.68-.37-1-.37-.5,0-.91,.18-1.24,.54-.33,.36-.5,.81-.5,1.34v4.35c0,.68,.09,1.17,.28,1.46,.18,.29,.5,.45,.96,.49l.63,.05c.26,.02,.39,.1,.39,.24,0,.16-.11,.24-.34,.24-.06,0-.25-.02-.58-.06-.15-.02-.38-.02-.68-.02h-1.42c-.64-.01-1.09,0-1.36,.05-.21,.03-.36,.05-.44,.06-.22,0-.33-.07-.33-.24,0-.13,.13-.23,.38-.27,.35-.08,.58-.23,.68-.45,.1-.22,.15-.69,.15-1.4v-5.24c0-.94-.45-1.4-1.34-1.4h-.41c-.19,.01-.28-.07-.28-.24,0-.1,.06-.18,.18-.23,.07-.02,.16-.03,.27-.04,.77-.07,1.67-.43,2.71-1.07,.11-.06,.2-.09,.28-.1,.19,0,.28,.13,.28,.42v2.05Z"/><path class="cls-1" d="M340.81,97.83l1.84-5.04c.2-.54,.29-1.03,.29-1.44,0-.39-.09-.67-.27-.85-.18-.17-.53-.32-1.04-.45-.2-.04-.29-.13-.29-.26,0-.15,.08-.22,.24-.21,.11,0,.27,.02,.49,.04,.18,.02,.54,.03,1.09,.03,.61,0,1.03,0,1.28-.03,.28-.02,.46-.02,.55-.02,.17,0,.26,.07,.26,.21,0,.11-.08,.2-.26,.28-.32,.12-.54,.26-.68,.41-.13,.16-.27,.43-.42,.83l-4.32,12.18-.12,.39c-.07,.21-.14,.33-.23,.37-.09,.03-.37,.05-.85,.05-.55,0-.83-.06-.83-.18,0-.07,.05-.15,.15-.24,.56-.56,1.06-1.23,1.48-2.01,.43-.78,.64-1.41,.64-1.88,0-.24-.15-.73-.46-1.45l-3.06-7.11c-.2-.47-.38-.8-.54-.98-.16-.18-.38-.31-.67-.38-.18-.05-.27-.12-.27-.23,0-.17,.12-.26,.35-.26,.17,0,.38,.01,.64,.04,.2,.02,.6,.04,1.23,.04,.76,0,1.3-.01,1.61-.04,.2-.02,.35-.02,.44-.02,.22,0,.33,.07,.33,.24,0,.14-.22,.25-.66,.31-.49,.07-.73,.28-.73,.61,0,.29,.13,.75,.39,1.36l2.4,5.71Z"/></g></g></svg>