<svg width="1920" height="241" viewBox="0 0 1920 241" fill="none" xmlns="http://www.w3.org/2000/svg">
<g clip-path="url(#clip0_2200_18708)">
<path d="M151.068 240.3L215.383 50.605V240.637H258.26V4.36273H195.104L130.789 193.045L64.1563 4.36273H1V240.637H40.4003V52.2927L107.612 240.3H151.068ZM301.39 61.4062V183.594C301.39 219.373 332.099 243 394.097 243C456.674 243 487.383 219.373 487.383 183.594V61.4062C487.383 25.2899 456.674 2 394.097 2C332.099 2 301.39 25.2899 301.39 61.4062ZM346.005 184.944V60.056C346.005 38.7913 361.649 25.965 394.097 25.965C427.123 25.965 442.188 38.7913 442.188 60.056V184.944C442.188 206.546 427.123 219.035 394.097 219.035C361.649 219.035 346.005 206.546 346.005 184.944ZM625.094 4.36273H530.07V240.637H625.094C688.25 240.637 717.221 218.36 717.221 182.244V63.0938C717.221 26.6401 688.25 4.36273 625.094 4.36273ZM624.514 216.672H575.264V28.3277H623.935C656.961 28.3277 672.606 40.1415 672.606 61.7437V183.256C672.606 204.859 656.961 216.672 624.514 216.672ZM904.073 108.999H804.993V28.3277H926.671V4.36273H759.799V240.637H926.671V216.672H804.993V132.626H904.073V108.999ZM1058.98 4.36273H968.591V240.637H1013.79V139.714H1045.65C1083.32 139.714 1104.75 148.153 1104.75 174.818V211.947C1104.75 227.811 1107.07 233.887 1112.29 240.637H1158.06C1150.53 232.536 1149.95 222.748 1149.95 212.284V175.493C1149.95 150.178 1136.04 132.626 1098.96 126.213C1133.72 119.8 1149.37 103.598 1149.37 77.6079V58.3684C1149.37 23.2647 1122.72 4.36273 1058.98 4.36273ZM1047.39 115.749H1013.79V28.3277H1057.82C1091.43 28.3277 1104.75 39.4664 1104.75 60.7311V83.3459C1104.75 108.999 1083.32 115.749 1047.39 115.749ZM1236.6 240.637V49.5924L1340.32 240.637H1387.25V4.36273H1347.27V175.155L1253.41 4.36273H1196.04V240.637H1236.6ZM1478.91 4.36273H1433.71V240.637H1478.91V4.36273ZM1610.55 2C1549.71 2 1520.74 24.6149 1520.74 61.0686C1520.74 127.563 1656.32 132.626 1656.32 185.282C1656.32 206.546 1641.26 219.035 1608.81 219.035C1576.36 219.035 1561.3 206.546 1561.3 185.282V170.43H1519V183.931C1519 219.71 1547.97 243 1609.97 243C1671.97 243 1701.52 219.71 1701.52 183.931C1701.52 117.437 1565.35 112.374 1565.35 59.381C1565.35 38.4538 1579.26 25.965 1611.71 25.965C1644.15 25.965 1658.06 38.4538 1658.06 59.7185V67.4818H1700.94V61.0686C1700.94 25.2899 1671.97 2 1610.55 2ZM1800.06 240.637H1845.26V28.3277H1920V4.36273H1725.32V28.3277H1800.06V240.637Z" fill="black"/>
</g>
<defs>
<clipPath id="clip0_2200_18708">
<rect width="1920" height="241" fill="white"/>
</clipPath>
</defs>
</svg>
