<svg width="1928" height="250" viewBox="0 0 1928 250" fill="none" xmlns="http://www.w3.org/2000/svg">
<g clip-path="url(#clip0_2200_18824)">
<path d="M132.087 176.042L86.3906 3.47222H0.0749512V246.528H54.2338V74.6528L100.495 246.528H159.166L202.042 72.2222V246.528H260.714V3.47222H174.399L132.087 176.042ZM300.778 61.8056V188.194C300.778 227.083 334.063 249.306 394.992 249.306C455.92 249.306 489.206 227.083 489.206 188.194V61.8056C489.206 22.9167 455.92 0.694458 394.992 0.694458C334.063 0.694458 300.778 22.9167 300.778 61.8056ZM362.835 190.625V59.375C362.835 42.0139 375.246 35.4167 394.992 35.4167C414.737 35.4167 427.149 42.0139 427.149 59.375V190.625C427.149 207.986 414.737 214.583 394.992 214.583C375.246 214.583 362.835 207.986 362.835 190.625ZM529.534 3.47222V246.528H627.697C689.754 246.528 720.219 225.347 720.219 186.458V63.5417C720.219 24.6528 689.754 3.47222 627.697 3.47222H529.534ZM591.591 38.1945H626.569C646.314 38.1945 658.162 44.4445 658.162 61.8056V188.194C658.162 205.556 646.314 211.806 626.569 211.806H591.591V38.1945ZM821.881 105.903V38.1945H929.07V3.47222H759.824V246.528H929.07V211.806H821.881V140.625H907.068V105.903H821.881ZM1097.28 246.528H1160.47C1154.26 237.5 1153.7 228.819 1153.7 217.014V179.514C1153.7 154.167 1143.54 135.764 1112.51 127.778C1140.16 119.792 1153.13 103.472 1153.13 78.4722V59.375C1153.13 21.875 1125.49 3.47222 1061.18 3.47222H967.526V246.528H1029.58V147.569H1051.02C1079.23 147.569 1091.64 155.903 1091.64 178.472V216.667C1091.64 236.458 1093.9 240.278 1097.28 246.528ZM1029.58 38.1945H1059.48C1081.49 38.1945 1091.08 45.8334 1091.08 63.1945V87.1528C1091.08 106.597 1076.97 112.847 1053.84 112.847H1029.58V38.1945ZM1249.8 70.4861L1327.09 246.528H1390.84V3.47222H1335.55V148.958L1271.8 3.47222H1193.95V246.528H1249.8V70.4861ZM1435.27 3.47222V246.528H1497.32V3.47222H1435.27ZM1534.8 61.8056C1534.8 131.25 1656.09 140.625 1656.09 190.625C1656.09 207.986 1643.68 214.236 1623.93 214.236C1604.19 214.236 1591.78 207.986 1591.78 190.625V173.264H1533.11V188.194C1533.11 227.083 1564.7 249.306 1625.63 249.306C1686.56 249.306 1718.15 227.083 1718.15 188.194C1718.15 118.75 1596.85 109.375 1596.85 59.375C1596.85 42.0139 1608.14 35.4167 1627.88 35.4167C1647.63 35.4167 1658.91 42.0139 1658.91 59.375V69.4445H1717.58V61.8056C1717.58 22.9167 1686.56 0.694458 1626.19 0.694458C1565.83 0.694458 1534.8 22.9167 1534.8 61.8056ZM1735.65 3.47222V38.1945H1800.53V246.528H1862.59V38.1945H1927.46V3.47222H1735.65Z" fill="#24160B"/>
<path d="M132.087 176.042L127.911 176.461L136.271 176.431L132.087 176.042ZM86.3906 3.4722L90.5668 3.0533L89.9881 0.868032H86.3906V3.4722ZM0.0749069 3.4722V0.868032H-4.15625V3.4722H0.0749069ZM0.0749069 246.528H-4.15625V249.132H0.0749069V246.528ZM54.2338 246.528V249.132H58.4649V246.528H54.2338ZM54.2338 74.6528L58.4081 74.2272L50.0026 74.6528H54.2338ZM100.494 246.528L96.3203 246.953L96.9066 249.132H100.494V246.528ZM159.166 246.528V249.132H162.805L163.35 246.918L159.166 246.528ZM202.042 72.2222H206.273L197.859 71.8324L202.042 72.2222ZM202.042 246.528H197.811V249.132H202.042V246.528ZM260.714 246.528V249.132H264.946V246.528H260.714ZM260.714 3.4722H264.946V0.868032H260.714V3.4722ZM174.399 3.4722V0.868032H170.758L170.215 3.08361L174.399 3.4722ZM136.263 175.622L90.5668 3.0533L82.2146 3.8911L127.911 176.461L136.263 175.622ZM86.3906 0.868032H0.0749069V6.07636H86.3906V0.868032ZM-4.15625 3.4722V246.528H4.30608V3.4722H-4.15625ZM0.0749069 249.132H54.2338V243.924H0.0749069V249.132ZM58.4649 246.528V74.6528H50.0026V246.528H58.4649ZM50.0596 75.0784L96.3203 246.953L104.669 246.102L58.4081 74.2272L50.0596 75.0784ZM100.494 249.132H159.166V243.924H100.494V249.132ZM163.35 246.918L206.225 72.6121L197.859 71.8324L154.983 246.138L163.35 246.918ZM197.811 72.2222V246.528H206.273V72.2222H197.811ZM202.042 249.132H260.714V243.924H202.042V249.132ZM264.946 246.528V3.4722H256.483V246.528H264.946ZM260.714 0.868032H174.399V6.07636H260.714V0.868032ZM170.215 3.08361L127.903 175.653L136.271 176.431L178.583 3.86078L170.215 3.08361ZM296.547 61.8055V188.194H305.009V61.8055H296.547ZM296.547 188.194C296.547 208.074 305.06 224.075 321.956 235.119C338.891 246.187 363.685 251.91 394.992 251.91V246.701C365.371 246.701 343.057 241.313 328.117 231.548C313.14 221.759 305.009 207.204 305.009 188.194H296.547ZM394.992 251.91C426.3 251.91 451.094 246.187 468.027 235.119C484.925 224.075 493.437 208.074 493.437 188.194H484.975C484.975 207.204 476.845 221.759 461.867 231.548C446.926 241.313 424.614 246.701 394.992 246.701V251.91ZM493.437 188.194V61.8055H484.975V188.194H493.437ZM493.437 61.8055C493.437 41.9265 484.925 25.9254 468.027 14.8813C451.094 3.81301 426.3 -1.90973 394.992 -1.90973V3.2986C424.614 3.2986 446.926 8.68697 461.867 18.452C476.845 28.2411 484.975 42.7956 484.975 61.8055H493.437ZM394.992 -1.90973C363.685 -1.90973 338.891 3.81301 321.956 14.8813C305.06 25.9254 296.547 41.9265 296.547 61.8055H305.009C305.009 42.7956 313.14 28.2411 328.117 18.452C343.057 8.68697 365.371 3.2986 394.992 3.2986V-1.90973ZM367.066 190.625V59.375H358.604V190.625H367.066ZM367.066 59.375C367.066 51.0178 370.066 45.7732 374.658 42.6251C379.167 39.5333 385.869 38.0208 394.992 38.0208V32.8125C384.37 32.8125 374.994 34.5985 368.361 39.1457C361.811 43.6365 358.604 50.371 358.604 59.375H367.066ZM394.992 38.0208C404.116 38.0208 410.818 39.5333 415.327 42.6251C419.919 45.7732 422.917 51.0178 422.917 59.375H431.38C431.38 50.371 428.174 43.6365 421.624 39.1457C414.991 34.5985 405.615 32.8125 394.992 32.8125V38.0208ZM422.917 59.375V190.625H431.38V59.375H422.917ZM422.917 190.625C422.917 198.982 419.919 204.227 415.327 207.375C410.818 210.467 404.116 211.979 394.992 211.979V217.187C405.615 217.187 414.991 215.401 421.624 210.854C428.174 206.364 431.38 199.629 431.38 190.625H422.917ZM394.992 211.979C385.869 211.979 379.167 210.467 374.658 207.375C370.066 204.227 367.066 198.982 367.066 190.625H358.604C358.604 199.629 361.811 206.364 368.361 210.854C374.994 215.401 384.37 217.187 394.992 217.187V211.979ZM529.534 3.4722V0.868032H525.303V3.4722H529.534ZM529.534 246.528H525.303V249.132H529.534V246.528ZM591.591 38.1944V35.5903H587.36V38.1944H591.591ZM591.591 211.806H587.36V214.41H591.591V211.806ZM525.303 3.4722V246.528H533.765V3.4722H525.303ZM529.534 249.132H627.697V243.924H529.534V249.132ZM627.697 249.132C659.496 249.132 683.913 243.694 700.325 232.852C716.689 222.042 724.45 206.281 724.45 186.458H715.988C715.988 205.524 708.517 219.799 694.134 229.301C679.8 238.771 657.957 243.924 627.697 243.924V249.132ZM724.45 186.458V63.5417H715.988V186.458H724.45ZM724.45 63.5417C724.45 43.7185 716.689 27.9586 700.325 17.1484C683.913 6.30522 659.496 0.868032 627.697 0.868032V6.07636C657.957 6.07636 679.8 11.2294 694.134 20.6987C708.517 30.201 715.988 44.4759 715.988 63.5417H724.45ZM627.697 0.868032H529.534V6.07636H627.697V0.868032ZM591.591 40.7986H626.569V35.5903H591.591V40.7986ZM626.569 40.7986C635.749 40.7986 642.278 42.2432 646.618 45.2266C651.052 48.2745 653.931 53.4188 653.931 61.8055H662.393C662.393 52.8311 659.349 46.17 652.922 41.7524C646.402 37.2707 637.134 35.5903 626.569 35.5903V40.7986ZM653.931 61.8055V188.194H662.393V61.8055H653.931ZM653.931 188.194C653.931 196.581 651.052 201.726 646.618 204.773C642.278 207.757 635.749 209.201 626.569 209.201V214.41C637.134 214.41 646.402 212.729 652.922 208.247C659.349 203.83 662.393 197.169 662.393 188.194H653.931ZM626.569 209.201H591.591V214.41H626.569V209.201ZM595.823 211.806V38.1944H587.36V211.806H595.823ZM821.881 105.903H817.65V108.507H821.881V105.903ZM821.881 38.1944V35.5903H817.65V38.1944H821.881ZM929.07 38.1944V40.7986H933.302V38.1944H929.07ZM929.07 3.4722H933.302V0.868032H929.07V3.4722ZM759.824 3.4722V0.868032H755.593V3.4722H759.824ZM759.824 246.528H755.593V249.132H759.824V246.528ZM929.07 246.528V249.132H933.302V246.528H929.07ZM929.07 211.806H933.302V209.201H929.07V211.806ZM821.881 211.806H817.65V214.41H821.881V211.806ZM821.881 140.625V138.021H817.65V140.625H821.881ZM907.068 140.625V143.229H911.299V140.625H907.068ZM907.068 105.903H911.299V103.299H907.068V105.903ZM826.112 105.903V38.1944H817.65V105.903H826.112ZM821.881 40.7986H929.07V35.5903H821.881V40.7986ZM933.302 38.1944V3.4722H924.839V38.1944H933.302ZM929.07 0.868032H759.824V6.07636H929.07V0.868032ZM755.593 3.4722V246.528H764.055V3.4722H755.593ZM759.824 249.132H929.07V243.924H759.824V249.132ZM933.302 246.528V211.806H924.839V246.528H933.302ZM929.07 209.201H821.881V214.41H929.07V209.201ZM826.112 211.806V140.625H817.65V211.806H826.112ZM821.881 143.229H907.068V138.021H821.881V143.229ZM911.299 140.625V105.903H902.837V140.625H911.299ZM907.068 103.299H821.881V108.507H907.068V103.299ZM1097.28 246.528L1093.27 247.352L1094.23 249.132H1097.28V246.528ZM1160.47 246.528V249.132H1166.85L1164.36 245.513L1160.47 246.528ZM1112.51 127.778L1110.72 125.42L1102.08 127.915L1110.88 130.181L1112.51 127.778ZM967.526 3.4722V0.868032H963.295V3.4722H967.526ZM967.526 246.528H963.295V249.132H967.526V246.528ZM1029.58 246.528V249.132H1033.81V246.528H1029.58ZM1029.58 147.569V144.965H1025.35V147.569H1029.58ZM1029.58 38.1944V35.5903H1025.35V38.1944H1029.58ZM1029.58 112.847H1025.35V115.451H1029.58V112.847ZM1097.28 249.132H1160.47V243.924H1097.28V249.132ZM1164.36 245.513C1158.53 237.021 1157.93 228.822 1157.93 217.014H1149.47C1149.47 228.817 1150 237.979 1156.57 247.543L1164.36 245.513ZM1157.93 217.014V179.514H1149.47V217.014H1157.93ZM1157.93 179.514C1157.93 153.882 1147.64 133.997 1114.15 125.375L1110.88 130.181C1139.44 137.531 1149.47 154.451 1149.47 179.514H1157.93ZM1114.31 130.135C1144 121.559 1157.36 104.038 1157.36 78.4722H1148.9C1148.9 102.906 1136.32 118.024 1110.72 125.42L1114.31 130.135ZM1157.36 78.4722V59.375H1148.9V78.4722H1157.36ZM1157.36 59.375C1157.36 40.2858 1150.34 25.5052 1134.28 15.5283C1118.21 5.54723 1093.91 0.868032 1061.18 0.868032V6.07636C1092.76 6.07636 1114.43 10.5985 1128.27 19.1938C1142.11 27.7934 1148.9 40.9641 1148.9 59.375H1157.36ZM1061.18 0.868032H967.526V6.07636H1061.18V0.868032ZM963.295 3.4722V246.528H971.757V3.4722H963.295ZM967.526 249.132H1029.58V243.924H967.526V249.132ZM1033.81 246.528V147.569H1025.35V246.528H1033.81ZM1029.58 150.174H1051.02V144.965H1029.58V150.174ZM1051.02 150.174C1064.51 150.174 1073.17 152.161 1078.66 156.223C1084.32 160.411 1087.41 167.365 1087.41 178.472H1095.87C1095.87 167.01 1092.76 158.513 1085.16 152.891C1077.39 147.144 1065.74 144.965 1051.02 144.965V150.174ZM1087.41 178.472V216.667H1095.87V178.472H1087.41ZM1087.41 216.667C1087.41 226.601 1087.97 232.651 1089 237.048C1090.05 241.507 1091.57 244.216 1093.27 247.352L1101.3 245.704C1099.61 242.589 1098.31 240.264 1097.38 236.303C1096.44 232.28 1095.87 226.524 1095.87 216.667H1087.41ZM1029.58 40.7986H1059.48V35.5903H1029.58V40.7986ZM1059.48 40.7986C1069.67 40.7986 1076.1 42.5433 1080.19 45.7813C1084.47 49.1727 1086.84 54.7076 1086.84 63.1944H1095.31C1095.31 54.3201 1092.89 47.3549 1086.87 42.5867C1080.66 37.665 1071.3 35.5903 1059.48 35.5903V40.7986ZM1086.84 63.1944V87.1528H1095.31V63.1944H1086.84ZM1086.84 87.1528C1086.84 96.5521 1083.42 102.163 1078.12 105.46C1072.85 108.746 1064.88 110.243 1053.84 110.243V115.451C1065.93 115.451 1076.59 113.824 1084.14 109.123C1091.68 104.434 1095.31 97.1979 1095.31 87.1528H1086.84ZM1053.84 110.243H1029.58V115.451H1053.84V110.243ZM1033.81 112.847V38.1944H1025.35V112.847H1033.81ZM1249.8 70.4861L1253.88 69.8068L1245.57 70.4861H1249.8ZM1327.09 246.528L1323 247.207L1323.85 249.132H1327.09V246.528ZM1390.84 246.528V249.132H1395.07V246.528H1390.84ZM1390.84 3.4722H1395.07V0.868032H1390.84V3.4722ZM1335.55 3.4722V0.868032H1331.32V3.4722H1335.55ZM1335.55 148.958L1331.46 149.636L1339.78 148.958H1335.55ZM1271.8 3.4722L1275.88 2.79411L1275.04 0.868032H1271.8V3.4722ZM1193.95 3.4722V0.868032H1189.72V3.4722H1193.95ZM1193.95 246.528H1189.72V249.132H1193.95V246.528ZM1249.8 246.528V249.132H1254.03V246.528H1249.8ZM1245.71 71.1654L1323 247.207L1331.17 245.848L1253.88 69.8068L1245.71 71.1654ZM1327.09 249.132H1390.84V243.924H1327.09V249.132ZM1395.07 246.528V3.4722H1386.61V246.528H1395.07ZM1390.84 0.868032H1335.55V6.07636H1390.84V0.868032ZM1331.32 3.4722V148.958H1339.78V3.4722H1331.32ZM1339.63 148.28L1275.88 2.79411L1267.71 4.15029L1331.46 149.636L1339.63 148.28ZM1271.8 0.868032H1193.95V6.07636H1271.8V0.868032ZM1189.72 3.4722V246.528H1198.18V3.4722H1189.72ZM1193.95 249.132H1249.8V243.924H1193.95V249.132ZM1254.03 246.528V70.4861H1245.57V246.528H1254.03ZM1435.27 3.4722V0.868032H1431.04V3.4722H1435.27ZM1435.27 246.528H1431.04V249.132H1435.27V246.528ZM1497.32 246.528V249.132H1501.56V246.528H1497.32ZM1497.32 3.4722H1501.56V0.868032H1497.32V3.4722ZM1431.04 3.4722V246.528H1439.5V3.4722H1431.04ZM1435.27 249.132H1497.32V243.924H1435.27V249.132ZM1501.56 246.528V3.4722H1493.09V246.528H1501.56ZM1497.32 0.868032H1435.27V6.07636H1497.32V0.868032ZM1591.78 173.264H1596.01V170.66H1591.78V173.264ZM1533.11 173.264V170.66H1528.87V173.264H1533.11ZM1658.91 69.4444H1654.68V72.0486H1658.91V69.4444ZM1717.58 69.4444V72.0486H1721.82V69.4444H1717.58ZM1530.57 61.8055C1530.57 97.691 1562.1 118.06 1592.57 135.418C1607.93 144.161 1622.71 151.99 1633.81 160.768C1644.77 169.444 1651.86 178.858 1651.86 190.625H1660.32C1660.32 177.391 1652.26 166.884 1640.48 157.569C1628.84 148.358 1613.3 140.128 1598.32 131.595C1568.15 114.405 1539.03 95.3646 1539.03 61.8055H1530.57ZM1651.86 190.625C1651.86 198.984 1648.86 204.125 1644.3 207.179C1639.82 210.186 1633.12 211.632 1623.93 211.632V216.84C1634.5 216.84 1643.88 215.161 1650.53 210.702C1657.12 206.291 1660.32 199.627 1660.32 190.625H1651.86ZM1623.93 211.632C1614.75 211.632 1608.05 210.186 1603.57 207.179C1599.01 204.125 1596.01 198.984 1596.01 190.625H1587.55C1587.55 199.627 1590.75 206.291 1597.33 210.702C1603.99 215.161 1613.37 216.84 1623.93 216.84V211.632ZM1596.01 190.625V173.264H1587.55V190.625H1596.01ZM1591.78 170.66H1533.11V175.868H1591.78V170.66ZM1528.87 173.264V188.194H1537.34V173.264H1528.87ZM1528.87 188.194C1528.87 208.04 1536.94 224.039 1553.4 235.093C1569.92 246.185 1594.32 251.91 1625.63 251.91V246.701C1596.01 246.701 1574.15 241.315 1559.63 231.574C1545.08 221.794 1537.34 207.238 1537.34 188.194H1528.87ZM1625.63 251.91C1656.94 251.91 1681.34 246.185 1697.85 235.093C1714.33 224.039 1722.38 208.04 1722.38 188.194H1713.92C1713.92 207.238 1706.19 221.794 1691.62 231.574C1677.11 241.315 1655.25 246.701 1625.63 246.701V251.91ZM1722.38 188.194C1722.38 152.309 1690.86 131.94 1660.38 114.582C1645.03 105.839 1630.25 98.0104 1619.15 89.2318C1608.18 80.5552 1601.09 71.1415 1601.09 59.375H1592.62C1592.62 72.6084 1600.69 83.1167 1612.47 92.4305C1624.12 101.642 1639.66 109.872 1654.62 118.404C1684.81 135.595 1713.92 154.635 1713.92 188.194H1722.38ZM1601.09 59.375C1601.09 50.9645 1603.85 45.712 1608.19 42.5746C1612.41 39.5286 1618.77 38.0208 1627.88 38.0208V32.8125C1617.26 32.8125 1608.11 34.6033 1601.75 39.1962C1595.52 43.6977 1592.62 50.4244 1592.62 59.375H1601.09ZM1627.88 38.0208C1637.01 38.0208 1643.37 39.5286 1647.59 42.5746C1651.93 45.712 1654.68 50.9645 1654.68 59.375H1663.14C1663.14 50.4244 1660.27 43.6977 1654.03 39.1962C1647.67 34.6033 1638.52 32.8125 1627.88 32.8125V38.0208ZM1654.68 59.375V69.4444H1663.14V59.375H1654.68ZM1658.91 72.0486H1717.58V66.8403H1658.91V72.0486ZM1721.82 69.4444V61.8055H1713.35V69.4444H1721.82ZM1721.82 61.8055C1721.82 41.9706 1713.9 25.9759 1697.67 14.9201C1681.37 3.82063 1657.23 -1.90973 1626.19 -1.90973V3.2986C1655.51 3.2986 1677.09 8.67935 1691.39 18.4132C1705.75 28.1908 1713.35 42.7515 1713.35 61.8055H1721.82ZM1626.19 -1.90973C1595.15 -1.90973 1571.03 3.82063 1554.73 14.9201C1538.48 25.9759 1530.57 41.9706 1530.57 61.8055H1539.03C1539.03 42.7515 1546.63 28.1908 1561 18.4132C1575.3 8.67935 1596.87 3.2986 1626.19 3.2986V-1.90973ZM1735.65 3.4722V0.868032H1731.42V3.4722H1735.65ZM1735.65 38.1944H1731.42V40.7986H1735.65V38.1944ZM1800.53 38.1944H1804.76V35.5903H1800.53V38.1944ZM1800.53 246.528H1796.3V249.132H1800.53V246.528ZM1862.59 246.528V249.132H1866.82V246.528H1862.59ZM1862.59 38.1944V35.5903H1858.36V38.1944H1862.59ZM1927.46 38.1944V40.7986H1931.7V38.1944H1927.46ZM1927.46 3.4722H1931.7V0.868032H1927.46V3.4722ZM1731.42 3.4722V38.1944H1739.88V3.4722H1731.42ZM1735.65 40.7986H1800.53V35.5903H1735.65V40.7986ZM1796.3 38.1944V246.528H1804.76V38.1944H1796.3ZM1800.53 249.132H1862.59V243.924H1800.53V249.132ZM1866.82 246.528V38.1944H1858.36V246.528H1866.82ZM1862.59 40.7986H1927.46V35.5903H1862.59V40.7986ZM1931.7 38.1944V3.4722H1923.23V38.1944H1931.7ZM1927.46 0.868032H1735.65V6.07636H1927.46V0.868032Z" fill="#FCF8F4"/>
</g>
<defs>
<clipPath id="clip0_2200_18824">
<rect width="1928" height="250" fill="white"/>
</clipPath>
</defs>
</svg>
