<?xml version="1.0" encoding="UTF-8"?><svg id="_лой_2" xmlns="http://www.w3.org/2000/svg" viewBox="0 0 1918.92 244.25"><defs><style>.cls-1{fill:#24160b;}.cls-2{fill:none;}</style></defs><g id="_лой_1-2"><path class="cls-2" d="M173.74,2.78l-41.78,170.35-8.36,.03L78.49,2.78H0V240.63H45.7V71.36l8.4-.43,45.68,169.7h51.44l42.33-172.1,8.42,.39V240.63h50.21V2.78h-78.44ZM457.56,15.15c-14.94-9.76-37.25-15.15-66.87-15.15s-51.94,5.39-66.88,15.15c-14.98,9.79-23.11,24.35-23.11,43.36v126.39c0,19.01,8.13,33.56,23.11,43.35,14.94,9.77,37.25,15.15,66.88,15.15s51.93-5.38,66.87-15.15c14.98-9.79,23.11-24.34,23.11-43.35V58.51c0-19.01-8.13-33.57-23.11-43.36Zm-30.49,172.18c0,9-3.2,15.74-9.75,20.23-6.64,4.54-16.01,6.33-26.63,6.33s-20-1.79-26.64-6.33c-6.55-4.49-9.75-11.23-9.75-20.23V56.08c0-9.01,3.2-15.74,9.75-20.23,6.64-4.55,16.01-6.34,26.64-6.34s19.99,1.79,26.63,6.34c6.55,4.49,9.75,11.22,9.75,20.23V187.33ZM689.83,17.4c-14.34-9.47-36.18-14.62-66.44-14.62h-93.93V240.63h93.93c30.26,0,52.1-5.16,66.44-14.63,14.38-9.5,21.85-23.77,21.85-42.84V60.24c0-19.06-7.47-33.34-21.85-42.84Zm-31.74,167.5c0,8.97-3.05,15.63-9.47,20.05-6.52,4.48-15.79,6.16-26.36,6.16h-39.21V32.29h39.21c10.57,0,19.84,1.68,26.36,6.16,6.42,4.42,9.47,11.08,9.47,20.06v126.39ZM920.53,32.29V2.78h-160.78V240.63h160.78v-29.52h-107.19v-76.39h85.19v-29.51h-85.19V32.29h107.19Zm231.05,210.94c.22,.34,.45,.68,.68,1.02l3.9-1.02h-4.58Zm-6.42-29.51v-37.5c0-25.07-10.03-41.99-38.59-49.34l-8.8-2.26,8.64-2.5c25.6-7.39,38.18-22.51,38.18-46.95v-19.09c0-18.41-6.79-31.58-20.63-40.18-13.84-8.6-35.51-13.12-67.09-13.12h-89.42V240.63h53.59v-98.96h25.67c14.72,0,26.37,2.18,34.14,7.92,7.6,5.63,10.71,14.12,10.71,25.58v38.2c0,9.86,.57,15.61,1.51,19.64,.75,3.17,1.73,5.29,2.96,7.62h54.01c-4.48-8.31-4.88-16.61-4.88-26.91Zm-54.16-129.86c0,10.04-3.63,17.28-11.17,21.97-7.55,4.7-18.21,6.32-30.3,6.32h-28.49V32.29h34.13c11.82,0,21.18,2.08,27.39,7,6.02,4.77,8.44,11.73,8.44,20.61v23.96ZM1335.47,2.78V145.66l-8.32,.68L1264.25,2.78h-70.38V240.63h47.39V67.19l8.31-.68,76.45,174.12h56.28V2.78h-46.83Zm99.72,0V240.63h53.59V2.78h-53.59Zm215.12,112.33c-14.96-8.54-30.5-16.77-42.15-25.98-11.78-9.31-19.85-19.82-19.85-33.05,0-8.95,2.9-15.68,9.13-20.18,6.36-4.59,15.51-6.39,26.13-6.39s19.79,1.8,26.15,6.39c6.24,4.5,9.11,11.23,9.11,20.18v7.46h50.21v-5.03c0-19.06-7.6-33.62-21.96-43.39-14.3-9.74-35.88-15.12-65.2-15.12s-50.89,5.38-65.19,15.12c-14.37,9.77-21.97,24.33-21.97,43.39,0,33.56,29.12,52.6,59.29,69.79,14.98,8.53,30.52,16.76,42.16,25.97,11.78,9.32,19.84,19.82,19.84,33.06,0,9-3.2,15.66-9.79,20.07-6.65,4.46-16.03,6.14-26.6,6.14s-19.94-1.68-26.6-6.14c-6.58-4.41-9.78-11.07-9.78-20.07v-14.76h-50.21v12.33c0,19.04,7.74,33.6,22.29,43.38,14.52,9.74,36.38,15.12,66,15.12s51.48-5.38,65.99-15.12c14.57-9.78,22.3-24.34,22.3-43.38,0-33.56-29.11-52.6-59.3-69.79ZM1735.57,2.78v29.51h64.88V240.63h53.6V32.29h64.87V2.78h-183.35Z"/><path class="cls-1" d="M173.74,2.78l-41.78,170.35-8.36,.03L78.49,2.78H0V240.63H45.7V71.36l8.4-.43,45.68,169.7h51.44l42.33-172.1,8.42,.39V240.63h50.21V2.78h-78.44ZM457.56,15.15c-14.94-9.76-37.25-15.15-66.87-15.15s-51.94,5.39-66.88,15.15c-14.98,9.79-23.11,24.35-23.11,43.36v126.39c0,19.01,8.13,33.56,23.11,43.35,14.94,9.77,37.25,15.15,66.88,15.15s51.93-5.38,66.87-15.15c14.98-9.79,23.11-24.34,23.11-43.35V58.51c0-19.01-8.13-33.57-23.11-43.36Zm-30.49,172.18c0,9-3.2,15.74-9.75,20.23-6.64,4.54-16.01,6.33-26.63,6.33s-20-1.79-26.64-6.33c-6.55-4.49-9.75-11.23-9.75-20.23V56.08c0-9.01,3.2-15.74,9.75-20.23,6.64-4.55,16.01-6.34,26.64-6.34s19.99,1.79,26.63,6.34c6.55,4.49,9.75,11.22,9.75,20.23V187.33ZM689.83,17.4c-14.34-9.47-36.18-14.62-66.44-14.62h-93.93V240.63h93.93c30.26,0,52.1-5.16,66.44-14.63,14.38-9.5,21.85-23.77,21.85-42.84V60.24c0-19.06-7.47-33.34-21.85-42.84Zm-31.74,167.5c0,8.97-3.05,15.63-9.47,20.05-6.52,4.48-15.79,6.16-26.36,6.16h-39.21V32.29h39.21c10.57,0,19.84,1.68,26.36,6.16,6.42,4.42,9.47,11.08,9.47,20.06v126.39ZM920.53,32.29V2.78h-160.78V240.63h160.78v-29.52h-107.19v-76.39h85.19v-29.51h-85.19V32.29h107.19Zm224.63,181.43v-37.5c0-25.07-10.03-41.99-38.59-49.34l-8.8-2.26,8.64-2.5c25.6-7.39,38.18-22.51,38.18-46.95v-19.09c0-18.41-6.79-31.58-20.63-40.18-13.84-8.6-35.51-13.12-67.09-13.12h-89.42V240.63h53.59v-98.96h25.67c14.72,0,26.37,2.18,34.14,7.92,7.6,5.63,10.71,14.12,10.71,25.58v38.2c0,9.86,.57,15.61,1.51,19.64,.75,3.17,1.73,5.29,2.96,7.62h54.01c-4.48-8.31-4.88-16.61-4.88-26.91Zm-54.16-129.86c0,10.04-3.63,17.28-11.17,21.97-7.55,4.7-18.21,6.32-30.3,6.32h-28.49V32.29h34.13c11.82,0,21.18,2.08,27.39,7,6.02,4.77,8.44,11.73,8.44,20.61v23.96ZM1335.47,2.78V145.66l-8.32,.68L1264.25,2.78h-70.38V240.63h47.39V67.19l8.31-.68,76.45,174.12h56.28V2.78h-46.83Zm99.72,0V240.63h53.59V2.78h-53.59Zm215.12,112.33c-14.96-8.54-30.5-16.77-42.15-25.98-11.78-9.31-19.85-19.82-19.85-33.05,0-8.95,2.9-15.68,9.13-20.18,6.36-4.59,15.51-6.39,26.13-6.39s19.79,1.8,26.15,6.39c6.24,4.5,9.11,11.23,9.11,20.18v7.46h50.21v-5.03c0-19.06-7.6-33.62-21.96-43.39-14.3-9.74-35.88-15.12-65.2-15.12s-50.89,5.38-65.19,15.12c-14.37,9.77-21.97,24.33-21.97,43.39,0,33.56,29.12,52.6,59.29,69.79,14.98,8.53,30.52,16.76,42.16,25.97,11.78,9.32,19.84,19.82,19.84,33.06,0,9-3.2,15.66-9.79,20.07-6.65,4.46-16.03,6.14-26.6,6.14s-19.94-1.68-26.6-6.14c-6.58-4.41-9.78-11.07-9.78-20.07v-14.76h-50.21v12.33c0,19.04,7.74,33.6,22.29,43.38,14.52,9.74,36.38,15.12,66,15.12s51.48-5.38,65.99-15.12c14.57-9.78,22.3-24.34,22.3-43.38,0-33.56-29.11-52.6-59.3-69.79ZM1735.57,2.78v29.51h64.88V240.63h53.6V32.29h64.87V2.78h-183.35Z"/></g></svg>