<svg width="147" height="30" viewBox="0 0 147 30" fill="none" xmlns="http://www.w3.org/2000/svg">
<path d="M9.92 20.88L6.68 0.999998H0.56V29H4.4V9.2L7.68 29H11.84L14.88 8.92V29H19.04V0.999998H12.92L9.92 20.88ZM23.0806 7.72V22.28C23.0806 26.76 25.4406 29.32 29.7606 29.32C34.0806 29.32 36.4406 26.76 36.4406 22.28V7.72C36.4406 3.24 34.0806 0.68 29.7606 0.68C25.4406 0.68 23.0806 3.24 23.0806 7.72ZM27.4806 22.56V7.44C27.4806 5.44 28.3606 4.68 29.7606 4.68C31.1606 4.68 32.0406 5.44 32.0406 7.44V22.56C32.0406 24.56 31.1606 25.32 29.7606 25.32C28.3606 25.32 27.4806 24.56 27.4806 22.56ZM40.5 0.999998V29H47.46C51.86 29 54.02 26.56 54.02 22.08V7.92C54.02 3.44 51.86 0.999998 47.46 0.999998H40.5ZM44.9 5H47.38C48.78 5 49.62 5.72 49.62 7.72V22.28C49.62 24.28 48.78 25 47.38 25H44.9V5ZM62.4281 12.8V5H70.0281V0.999998H58.0281V29H70.0281V25H62.4281V16.8H68.4681V12.8H62.4281ZM83.1547 29H87.6347C87.1947 27.96 87.1547 26.96 87.1547 25.6V21.28C87.1547 18.36 86.4347 16.24 84.2347 15.32C86.1947 14.4 87.1147 12.52 87.1147 9.64V7.44C87.1147 3.12 85.1547 0.999998 80.5947 0.999998H73.9547V29H78.3547V17.6H79.8747C81.8747 17.6 82.7547 18.56 82.7547 21.16V25.56C82.7547 27.84 82.9147 28.28 83.1547 29ZM78.3547 5H80.4747C82.0347 5 82.7147 5.88 82.7147 7.88V10.64C82.7147 12.88 81.7147 13.6 80.0747 13.6H78.3547V5ZM95.1684 8.72L100.648 29H105.168V0.999998H101.248V17.76L96.7284 0.999998H91.2084V29H95.1684V8.72ZM109.519 0.999998V29H113.919V0.999998H109.519ZM117.776 7.72C117.776 15.72 126.376 16.8 126.376 22.56C126.376 24.56 125.496 25.28 124.096 25.28C122.696 25.28 121.816 24.56 121.816 22.56V20.56H117.656V22.28C117.656 26.76 119.896 29.32 124.216 29.32C128.536 29.32 130.776 26.76 130.776 22.28C130.776 14.28 122.176 13.2 122.176 7.44C122.176 5.44 122.976 4.68 124.376 4.68C125.776 4.68 126.576 5.44 126.576 7.44V8.6H130.736V7.72C130.736 3.24 128.536 0.68 124.256 0.68C119.976 0.68 117.776 3.24 117.776 7.72ZM133.217 0.999998V5H137.817V29H142.217V5H146.817V0.999998H133.217Z" fill="#FCF8F4"/>
</svg>
