<svg width="24" height="24" viewBox="0 0 24 24" fill="none" xmlns="http://www.w3.org/2000/svg">
<path d="M4.22183 19.7782C3.24833 18.8047 3.89401 16.7608 3.3985 15.5633C2.88485 14.3218 1 13.3226 1 12C1 10.6773 2.88486 9.67815 3.39851 8.43672C3.89402 7.23914 3.24833 5.19533 4.22183 4.22183C5.19532 3.24833 7.23915 3.89401 8.43673 3.3985C9.67819 2.88485 10.6774 1 12 1C13.3227 1 14.3218 2.88486 15.5633 3.39851C16.7609 3.89402 18.8047 3.24833 19.7782 4.22183C20.7517 5.19532 20.106 7.23915 20.6015 8.43673C21.1152 9.67819 23 10.6774 23 12C23 13.3227 21.1151 14.3218 20.6015 15.5633C20.106 16.7609 20.7517 18.8047 19.7782 19.7782C18.8047 20.7517 16.7608 20.106 15.5633 20.6015C14.3218 21.1152 13.3226 23 12 23C10.6773 23 9.67815 21.1151 8.43672 20.6015C7.23914 20.106 5.19533 20.7517 4.22183 19.7782Z" stroke="#24160B" stroke-linecap="round" stroke-linejoin="round"/>
<path d="M15.5999 8.40039L8.3999 15.6004" stroke="black" stroke-linecap="round" stroke-linejoin="round"/>
<path d="M9.0002 10.8002C9.99431 10.8002 10.8002 9.99431 10.8002 9.0002C10.8002 8.00608 9.99431 7.2002 9.0002 7.2002C8.00608 7.2002 7.2002 8.00608 7.2002 9.0002C7.2002 9.99431 8.00608 10.8002 9.0002 10.8002Z" stroke="black" stroke-linecap="round" stroke-linejoin="round"/>
<path d="M15.0002 16.8002C15.9943 16.8002 16.8002 15.9943 16.8002 15.0002C16.8002 14.0061 15.9943 13.2002 15.0002 13.2002C14.0061 13.2002 13.2002 14.0061 13.2002 15.0002C13.2002 15.9943 14.0061 16.8002 15.0002 16.8002Z" stroke="black" stroke-linecap="round" stroke-linejoin="round"/>
</svg>
