<svg width="26" height="21" viewBox="0 0 26 21" fill="none" xmlns="http://www.w3.org/2000/svg">
<path fill-rule="evenodd" clip-rule="evenodd" d="M1.78736 9.04036C8.76667 6.07678 13.4206 4.123 15.7493 3.17903C22.398 0.483813 23.7795 0.0156247 24.68 0.000164837C24.878 -0.00323539 25.3208 0.0446012 25.6077 0.271446C25.8499 0.46299 25.9165 0.721738 25.9484 0.903342C25.9803 1.08495 26.02 1.49865 25.9884 1.8219C25.6281 5.51145 24.0692 14.465 23.276 18.5974C22.9404 20.3459 22.2796 20.9322 21.6399 20.9896C20.2496 21.1143 19.1938 20.0941 17.8473 19.2338C15.7401 17.8876 14.5498 17.0496 12.5044 15.736C10.1407 14.2179 11.673 13.3835 13.0201 12.0199C13.3726 11.663 19.4983 6.23264 19.6169 5.74002C19.6317 5.67841 19.6455 5.44875 19.5055 5.32749C19.3655 5.20622 19.1589 5.24769 19.0098 5.28067C18.7985 5.32742 15.4323 7.49585 8.91132 11.786C7.95585 12.4254 7.09041 12.737 6.31501 12.7206C5.46019 12.7026 3.81586 12.2496 2.59347 11.8623C1.09416 11.3873 -0.0974649 11.1362 0.00629874 10.3295C0.0603452 9.90932 0.654034 9.47961 1.78736 9.04036Z" fill="#24160B"/>
</svg>
