<svg width="299" height="78" viewBox="0 0 299 78" fill="none" xmlns="http://www.w3.org/2000/svg">
<g clip-path="url(#clip0_596_18403)">
<path d="M87.315 28.4862C87.0744 28.243 86.9335 28.0202 86.7344 27.7108C86.6305 27.5538 86.5186 27.3848 86.3942 27.2031C86.7384 26.8073 87.0289 26.3494 87.2487 25.8459L88.128 23.8534L85.9627 23.544C85.5977 23.4903 85.0087 23.3378 84.3201 23.1562C82.9927 22.8096 81.2881 22.3641 79.4297 22.1702C80.0645 21.8938 80.6036 21.3946 80.9809 20.7179L81.3376 20.0785C81.3376 20.0785 81.2423 19.1834 80.894 18.903C81.0267 18.6266 81.1303 18.3212 81.2008 17.987L81.4954 16.5596L80.1099 16.0894C79.8941 16.0151 79.6787 15.9613 79.4671 15.9283C79.3883 15.6685 79.2721 15.3921 79.1145 15.0991L78.2932 13.6016L76.8123 14.4638C76.4433 14.6784 76.132 14.926 75.8791 15.2022C75.6593 15.1611 75.4227 15.1404 75.1739 15.1404C75.1739 15.1404 74.3277 15.0455 73.3944 15.3839L72.1998 14.1503L70.7853 12.6487C69.462 11.2419 67.6701 10.8253 65.8451 11.5183C65.1483 10.8253 64.0615 10.2518 62.3733 10.2518C61.8008 10.2518 61.2988 10.322 61.0043 10.359C61.0043 10.359 58.6815 10.7799 57.3748 12.0134L55.7904 11.2625C54.7284 12.9252 52.9117 13.453 52.9117 13.453C52.7871 12.9663 52.5758 12.5125 52.273 12.0959L52.3765 11.5101C52.3765 11.4935 52.7332 9.50926 53.82 7.82597L55.7116 4.89682L53.0319 5.198C53.0404 4.93407 53.0278 4.62062 52.9905 4.24924L52.7499 1.97199L50.651 2.91665C50.4187 3.01977 50.2237 3.12289 50.0414 3.21782L49.6263 2.33904L48.6641 2.83419C48.5686 2.59911 48.4444 2.33087 48.2744 2.0215L47.1666 0L45.5946 1.68738C45.4328 1.86069 45.296 2.0215 45.1799 2.17414L44.2258 1.22948L43.2633 2.17823C43.1431 2.02559 43.0104 1.86478 42.8485 1.69148L41.26 0L40.1482 2.02969C39.9782 2.33904 39.8579 2.6032 39.7626 2.83829L38.8044 2.34335L38.3895 3.22192C38.2071 3.1272 38.0122 3.02386 37.7798 2.91665L35.6727 1.97608L35.4404 4.26153C35.4031 4.6288 35.3905 4.93816 35.3989 5.20231L32.7151 4.90113L34.6108 7.83005C35.7018 9.50926 36.05 11.4935 36.05 11.5101L36.1496 12.0959C35.8468 12.5165 35.6312 12.9704 35.5109 13.4573C35.5109 13.4573 33.7937 12.7271 32.6445 11.2625L31.0268 12.0298C29.181 10.7921 28.0362 10.3095 26.0452 10.2518C24.357 10.2063 23.2702 10.8253 22.5733 11.5183C20.744 10.8294 18.9562 11.2459 17.6372 12.6528C17.6372 12.6528 16.7703 13.5893 16.2228 14.1544C15.6752 14.7238 14.8663 15.194 14.8663 15.194C14.8663 15.194 13.7174 14.9383 12.5351 15.2065C12.2821 14.9301 11.967 14.6825 11.5936 14.4638L10.1086 13.6016L9.2914 15.1075C9.13372 15.3962 9.02176 15.6685 8.94726 15.9283C8.73565 15.9613 8.51995 16.0151 8.30424 16.0894L6.92702 16.5677L7.21334 17.987C7.28371 18.3293 7.38335 18.6347 7.52023 18.9111C7.44139 19.0637 7.37101 19.2246 7.31296 19.3937L7.08058 20.0827L7.43317 20.722C7.80655 21.3946 8.34148 21.8978 8.9804 22.1744C7.11782 22.3683 5.41726 22.8137 4.08574 23.1603C3.40136 23.3378 2.81227 23.4944 2.44732 23.548L0.273756 23.8617L0.767335 24.9754L1.16151 25.8625C1.38545 26.3575 1.67999 26.8154 2.02002 27.2116C1.89137 27.3929 1.34386 28.247 1.09913 28.4903L0 29.6L1.05365 30.7552C1.1862 30.8955 2.36849 32.129 4.28065 32.1331C4.80326 32.1331 5.32174 32.0426 5.83612 31.8607C6.34637 32.6531 6.95192 33.4573 7.50377 33.8535C6.48737 35.0417 5.33019 36.073 3.68334 36.8527L2.30634 37.5043L2.89932 39.0681C3.28527 40.0127 4.03593 41.0481 5.48764 41.4443C5.17664 42.3683 5.02742 43.243 4.89466 44.0227C4.58343 45.875 4.45067 46.6424 2.81227 47.2158L1.33975 47.7274L1.76294 49.2208C2.10297 50.4377 2.61323 51.2423 3.16486 51.7744L2.18592 52.847C2.18592 52.847 4.50893 54.5798 6.78603 54.7901C6.81916 54.7942 8.76057 54.918 9.63164 53.8124C9.98011 55.0665 10.5317 56.2217 11.0335 57.2696C12.0623 59.423 12.6098 60.6976 11.9213 61.8611L10.3658 64.485L13.4228 64.3571C14.7585 64.3035 15.9988 64.221 17.0731 63.9569C17.0731 64.0146 17.069 64.0684 17.0647 64.122L16.8159 66.3744L19.4955 65.8133C19.7776 65.7308 20.043 65.6194 20.2836 65.4916C21.9427 67.4222 24.7635 68.9279 28.5629 68.9279H28.7828L24.415 70.7103L27.5966 72.3564C29.6912 73.4414 32.0182 74.3489 34.673 75.1203L34.3037 76.3869L35.9008 76.8529C36.8216 77.1212 40.1525 78 44.2092 78C48.2659 78 51.5926 77.1212 52.5177 76.8529L54.1103 76.3869L53.7412 75.1244C56.4 74.3532 58.7273 73.4454 60.8219 72.3604L64.0035 70.7143L59.6315 68.9323H59.8512C63.6509 68.9323 66.4673 67.4264 68.1264 65.4958C68.367 65.6237 68.6325 65.7348 68.9145 65.8175L71.5941 66.3786L71.3493 64.1301C71.3453 64.0765 71.3412 64.0188 71.3412 63.961C72.4115 64.2252 73.6557 64.3035 74.9872 64.3612L78.0442 64.4891L76.4972 61.8694C75.8043 60.7061 76.356 59.4311 77.3805 57.2777C77.8825 56.2299 78.4343 55.0747 78.7827 53.8206C79.3715 54.2661 80.0064 54.5343 80.6368 54.6747C80.6368 54.6747 81.1263 54.819 81.595 54.8314C82.9472 54.8725 83.6232 54.489 84.5526 53.9073L86.2408 52.851L85.2534 51.7785C85.8053 51.2504 86.3152 50.4462 86.6556 49.2333L87.0829 47.7355L85.606 47.224C83.9634 46.6507 83.8348 45.8832 83.5238 44.031C83.3911 43.2512 83.2459 42.3727 82.9306 41.4524C84.3824 41.0522 85.129 40.0169 85.5148 39.0762L86.1038 37.5087L84.7267 36.8568C83.0798 36.0771 81.9227 35.0457 80.9021 33.8575C81.4581 33.4617 82.0636 32.6571 82.5779 31.8651C83.0883 32.0466 83.6067 32.1331 84.1334 32.1371C86.0456 32.1371 87.232 30.9039 87.3606 30.7635L88.4144 29.6083L87.315 28.4862Z" fill="#FCF8F4"/>
<path fill-rule="evenodd" clip-rule="evenodd" d="M30.7271 48.816V36.2335C30.7271 35.0618 30.3869 33.89 29.9805 32.8135H39.7988C40.6989 34.0426 42.3331 34.8678 44.2081 34.8678C46.0746 34.8678 47.7089 34.0426 48.6133 32.8135H58.4316C58.0168 33.8944 57.6807 35.0618 57.6807 36.2335V48.816H30.7271ZM44.204 66.0109C42.8311 64.6537 41.852 64.5052 38.152 64.5052C33.7301 64.5052 30.7271 61.9268 30.7271 57.8053V49.5544H57.6766V57.8053C57.6766 61.9268 54.6776 64.5052 50.2476 64.5052C46.5517 64.5011 45.5726 64.6537 44.204 66.0109Z" fill="#FEF7F0"/>
<path d="M32.2918 67.5664V70.0788L30.0977 70.9576C31.9518 71.7951 34.2539 72.6284 36.9585 73.243L38.2027 69.2125C35.5482 68.6719 33.6981 68.1069 32.2918 67.5664Z" fill="#FCF8F4"/>
<path d="M44.2065 70.9701C41.614 70.9701 39.4323 70.7018 38.5611 70.5039L37.2461 74.7325C39.3118 75.2357 41.7301 75.6071 44.2065 75.6071C46.6746 75.6071 49.093 75.2398 51.1668 74.7325L49.8479 70.5039C48.9767 70.7061 46.8033 70.9701 44.2065 70.9701Z" fill="#FCF8F4"/>
<path d="M56.1179 67.5664C54.7077 68.1069 52.8619 68.6678 50.207 69.2166L51.4557 73.2471C54.1643 72.6325 56.4581 71.7992 58.3122 70.9617L56.122 70.0829V67.5664H56.1179Z" fill="#FCF8F4"/>
<path d="M27.6948 27.0344C31.1292 25.1902 39.5246 21.1308 33.8337 16.7537C33.0581 16.1597 32.2035 15.6235 31.486 14.9591C30.5981 15.6398 31.8177 17.3314 32.1247 17.95C32.1247 17.95 30.2291 18.14 29.777 18.14C26.8486 18.1274 23.779 16.403 25.3345 13.0986C24.1689 13.3378 24.0278 14.4517 23.6711 15.4047C22.9243 14.9014 21.6263 13.8205 20.6265 13.9731C21.4396 16.56 24.8617 18.8909 27.5162 19.4187C24.8326 20.8709 19.855 21.9517 17.2374 18.8247C15.4001 22.3602 17.9594 23.8372 20.4689 25.6894C10.916 30.0252 12.3264 34.8893 6.05884 38.7177C6.87188 39.0972 10.4972 38.3342 10.8207 38.2887C9.4602 40.0419 8.82542 40.7845 8.42735 41.6384C8.04573 42.4389 7.8755 43.3422 7.49823 45.2895C7.20367 46.8284 6.66439 48.363 4.78125 49.382C5.51956 50.7103 7.15798 49.6706 7.84236 49.4934C7.75119 49.6336 7.51879 51.2342 6.90502 52.0059C10.1238 51.7994 8.63461 45.0503 11.8536 46.6756C12.7619 47.1295 13.0357 48.1938 12.6168 49.0642C10.5013 53.4044 15.3089 57.2287 15.0475 61.0322C16.2296 61.024 17.4532 60.9909 18.2248 59.4028C18.6273 60.1948 19.2494 61.3087 19.5977 62.3812L20.5603 60.7517C21.1532 63.4498 23.6835 65.9416 27.1015 66.1644C25.4713 63.5982 27.4252 60.0958 23.4636 56.3705C23.9573 55.9743 25.0979 55.2112 25.5045 54.6916C20.6432 55.2606 15.5701 51.4364 17.8722 49.6212C19.378 48.4373 20.0375 50.8961 22.3605 50.4833L21.4519 49.7038C21.7713 49.3902 22.1362 48.9818 22.5138 48.6724C21.5266 48.5526 20.4481 47.9256 20.4481 47.9256L21.0371 46.9562C15.342 46.948 15.1967 42.6164 17.5114 42.443C18.5981 42.3646 20.0043 44.3571 23.5094 43.9406C23.0613 43.4042 22.883 42.5915 22.6714 41.9933C23.5176 41.9148 24.5132 41.9231 25.3137 41.5354C23.6006 41.3167 23.1692 40.7434 21.7424 39.6706L23.3974 39.0685C20.9958 37.8759 21.1409 35.8011 21.0662 33.6392C22.3229 34.357 23.7997 35.4709 25.376 34.9553C25.7492 34.8315 25.9898 34.6581 25.998 34.2704C23.75 33.3753 22.3065 29.9305 27.6948 27.0344ZM23.5923 27.3727C20.585 30.5699 21.8874 32.4842 22.4932 33.074C21.3731 32.8347 19.7015 31.4156 20.0831 30.0418C19.7264 30.4669 19.3615 30.9289 18.9881 31.4032C18.2414 32.3933 17.5737 33.3628 16.9805 34.3033C16.0678 37.0015 17.7395 39.7863 20.585 41.0198C17.4241 40.5575 16.0056 37.7605 16.0141 35.9784C14.5041 38.8168 13.7824 41.4075 13.8487 43.5816C13.8777 44.3902 13.9483 45.1452 14.0562 45.8589C14.7819 47.2284 15.9476 47.7319 18.0256 47.9836C16.1384 48.103 15.1386 48.0164 14.3174 47.1584C15.6032 52.6576 21.6178 57.4183 24.0651 61.4943C21.6137 58.3259 16.5407 53.6066 14.7655 50.1947C14.6286 51.4282 14.9604 54.5884 16.5033 56.5314C14.2303 54.3079 14.0519 50.9416 14.2013 48.9695C13.6248 47.5503 13.2596 45.9661 13.2098 44.1634C13.1643 42.5047 13.2804 41.065 13.5334 39.7737C12.0983 41.8035 10.0242 42.5874 9.00387 45.6774C9.2029 41.6921 12.1936 41.6303 14.4335 36.7912C15.3004 34.6747 16.5616 32.8472 17.9553 30.7761C16.1841 31.3538 14.8567 31.7662 12.8076 33.998C14.2635 30.574 22.6755 26.725 26.5292 22.9997C25.3717 23.2433 20.6472 23.3627 18.6854 22.0591C22.24 23.0163 30.1503 21.9228 33.1369 19.8932C31.0753 22.843 26.5872 23.012 21.1243 28.8784C21.8212 28.3256 22.7502 27.7687 23.5923 27.3727Z" fill="#FCF8F4"/>
<path d="M80.9081 45.2892C80.5307 43.3421 80.3647 42.4388 79.9832 41.6383C79.5892 40.7842 78.9503 40.0417 77.5856 38.2885C77.9093 38.3337 81.5428 39.0971 82.3517 38.7175C76.0841 34.889 77.4946 30.0251 67.9374 25.6892C70.4471 23.8369 73.0063 22.3601 71.1687 18.8204C68.5514 21.9516 63.5738 20.8708 60.89 19.4145C63.5488 18.8863 66.967 16.5595 67.7799 13.9688C66.776 13.8162 65.4777 14.8971 64.7312 15.3961C64.3742 14.4433 64.2374 13.3294 63.072 13.0859C64.6274 16.3946 61.5537 18.119 58.6211 18.1314C58.1732 18.1314 56.2816 17.9417 56.2816 17.9417C56.5844 17.3229 57.8039 15.6315 56.9121 14.9507C56.1945 15.619 55.3483 16.1511 54.5685 16.7454C48.8733 21.1225 57.2772 25.186 60.7117 27.026C66.0917 29.9219 64.6606 33.3667 62.4081 34.2496C62.4166 34.6373 62.657 34.8105 63.0345 34.9343C64.6026 35.4543 66.0875 34.3404 67.3359 33.6183C67.2656 35.7802 67.4147 37.8593 65.0131 39.0475L66.664 39.6498C65.237 40.7224 64.8097 41.2957 63.0968 41.5145C63.8933 41.9022 64.897 41.8941 65.7391 41.9724C65.5235 42.5707 65.3368 43.3834 64.897 43.9196C68.4062 44.332 69.8164 42.3437 70.895 42.4222C73.2013 42.5954 73.0645 46.9272 67.365 46.9353L67.954 47.9048C67.954 47.9048 66.8756 48.5319 65.8843 48.6516C66.2617 48.9568 66.6307 49.3692 66.9503 49.683L66.0418 50.4625C68.3606 50.8753 69.0242 48.4165 70.53 49.6003C72.832 51.4156 67.7633 55.2399 62.8977 54.6706C63.3082 55.1903 64.4489 55.9578 64.9426 56.3536C60.9772 60.0749 62.9266 63.5816 61.3049 66.1517C64.7144 65.9247 67.2447 63.4331 67.8461 60.735L68.8085 62.3647C69.1528 61.2918 69.7834 60.1781 70.1775 59.386C70.9449 60.9743 72.1767 61.0073 73.363 61.0154C73.0934 57.2118 77.8967 53.3875 75.7897 49.0476C75.3664 48.1812 75.6403 47.1168 76.5487 46.6589C79.7757 45.0336 78.2783 51.7828 81.5014 51.989C80.8833 51.2175 80.6552 49.6169 80.5681 49.4768C81.2485 49.6541 82.8828 50.6938 83.621 49.3611C81.7502 48.3629 81.2111 46.828 80.9081 45.2892ZM74.8812 39.7694C75.1343 41.0648 75.2629 42.5005 75.2046 44.159C75.1508 45.9618 74.7898 47.5458 74.2134 48.9649C74.3584 50.937 74.1843 54.3034 71.9112 56.527C73.4501 54.5798 73.7861 51.4237 73.6493 50.1903C71.8657 53.602 66.797 58.3217 64.3412 61.4899C66.7925 57.4139 72.8072 52.6491 74.0974 47.154C73.2675 48.0081 72.2764 48.0986 70.3848 47.979C72.4588 47.7273 73.6243 47.2242 74.3503 45.8543C74.4581 45.1449 74.5288 44.3857 74.5577 43.5774C74.6282 41.4031 73.9023 38.8122 72.3925 35.974C72.4049 37.7563 70.9862 40.5533 67.8213 41.0152C70.6584 39.7776 72.3344 36.9929 71.426 34.2991C70.837 33.3584 70.1734 32.3847 69.4183 31.399C69.0449 30.9245 68.68 30.4625 68.3189 30.0376C68.7006 31.4112 67.0291 32.8305 65.9091 33.0698C66.5189 32.4798 67.8172 30.5657 64.8141 27.3682C65.6562 27.7644 66.5852 28.3212 67.2861 28.8658C61.8235 22.9995 57.3393 22.8344 55.2695 19.8807C58.2603 21.9105 66.1705 23.0077 69.7211 22.0465C67.7633 23.3502 63.0345 23.2304 61.8773 22.987C65.7307 26.7123 74.1511 30.5613 75.603 33.9857C73.554 31.7537 72.2224 31.3411 70.4595 30.7635C71.8572 32.8386 73.11 34.662 73.9769 36.7786C76.2211 41.6176 79.2158 41.6753 79.4109 45.6647C78.3904 42.5829 76.3205 41.7992 74.8812 39.7694Z" fill="#FCF8F4"/>
<path d="M48.6098 32.8096C47.7097 34.039 46.0713 34.8642 44.2086 34.8642C43.7731 34.8642 43.3543 34.8147 42.9561 34.7404C43.0679 35.2479 43.3293 35.7716 43.8727 36.2214C43.653 37.6942 44.2917 39.0722 45.8805 39.431C46.0505 40.1819 46.515 40.747 47.3031 41.0153L46.1955 42.2859C45.7685 42.7726 45.2126 42.9294 44.7646 42.8716L39.8203 42.3147C40.0359 41.77 39.4636 41.1388 37.8955 41.4071L39.8369 36.0029L38.6545 33.4987L36.4106 35.4045L36.2447 41.073L35.278 40.6066C34.0337 40.0704 33.6647 42.327 34.8509 42.3353L35.3279 42.3395C35.2947 42.5705 35.3696 42.8262 35.556 42.9086C35.332 42.9995 35.2658 43.4161 35.5437 43.5646C35.2617 43.701 35.22 44.13 35.4481 44.3155C35.2033 44.7322 35.1579 45.6357 36.0248 45.8625C36.7382 46.0481 37.1862 45.2891 37.3315 44.8477L45.0259 47.2157C46.1086 47.5252 46.8884 47.3519 47.7926 46.5639L49.8002 44.8188C49.5472 45.9617 49.958 46.9887 50.8331 47.3312C50.8331 47.3312 50.6962 48.379 50.7502 48.8121L53.4423 48.8165H57.6813V36.2338C57.6813 35.062 58.0174 33.8905 58.4322 32.8096H53.4423H48.6098Z" fill="#FCF8F4"/>
<path d="M37.0865 53.9816L37.2359 54.1672C37.4432 54.4229 37.5676 54.3612 37.8041 54.2248L38.1524 54.0393C38.3724 53.8742 39.8035 54.4189 39.8823 53.2347C40.0399 54.1176 38.9822 55.9782 39.6209 57.0177L40.4796 58.4164L37.6755 58.4575C37.3686 58.4575 37.2068 58.6434 37.1239 58.8083L36.3897 60.3223C36.199 60.7226 36.2112 61.135 36.4519 61.4114L36.9495 61.9685C36.9495 61.9685 37.3561 61.6261 37.4888 61.1764L37.2689 60.9494C37.0865 60.7762 37.0865 60.6111 37.186 60.3966L37.6382 59.4642C37.8123 59.0971 37.9908 59.0188 38.3889 59.1135L40.658 59.6003C40.8239 59.6416 41.0935 59.7199 41.2552 59.4435C41.5332 58.9526 42.0227 58.9198 42.5203 58.9981C43.7649 59.1837 46.6393 59.4807 47.6638 58.2885C48.8667 59.8768 51.2188 59.8768 51.0653 60.7101L50.5675 63.4412H51.3141L51.7703 60.6483C51.8202 60.3223 52.0234 59.8768 51.6708 59.625C51.5256 59.5137 51.4592 59.456 51.1315 58.8949C50.7045 58.1523 50.7249 57.0384 50.3144 56.0772C50.7045 55.6193 51.1274 55.4626 51.4967 55.5491C52.3262 55.7512 52.5503 57.1747 53.7283 58.3338C53.5956 57.8182 53.5375 57.253 53.2596 56.7619C53.2596 56.7619 54.0767 57.3933 54.2881 58.1317C54.4208 58.5938 54.5578 58.932 54.9768 59.1466C55.2547 59.2454 55.5866 59.1135 55.9182 58.7176C55.9182 58.7176 55.1427 57.6201 54.5745 56.9024C53.7945 55.9163 52.7535 54.9262 51.3348 55.0417C50.8867 55.0789 50.4555 55.2811 50.0447 55.5245C48.4312 54.6251 47.1786 55.5781 46.6808 55.5781L43.661 55.4007C43.0678 55.3635 42.5993 54.6787 42.5993 54.6787C42.5246 52.1375 40.4713 51.1268 39.7619 51.1268C39.7619 51.1268 39.8283 50.6688 39.6416 50.5078L39.0111 51.2958L37.2607 50.6604L38.6336 51.7786L37.1445 53.499C36.9912 53.668 37.0119 53.8907 37.0865 53.9816Z" fill="#FCF8F4"/>
<path d="M35.1079 57.5503C34.6846 57.8763 34.7056 58.33 34.9586 58.8375L35.2117 59.3079L35.8712 58.8086L35.7219 58.4868C35.614 58.2598 35.6181 58.0289 35.8048 57.8846L36.7505 57.1751C37.016 56.9811 37.0989 56.9605 37.381 57.0017L39.3763 57.4184C39.3763 57.4184 39.0735 56.9811 38.9738 56.5355L37.0948 56.288C36.8293 56.2549 36.6675 56.3665 36.4353 56.5438L35.1079 57.5503Z" fill="#FCF8F4"/>
<path d="M47.8672 63.4415H48.6221L49.8335 60.4754C49.8749 60.3722 49.9329 60.3268 49.9785 60.2401C49.4351 60.0256 49.1157 59.877 48.6637 59.6172C48.9664 60.0215 49.2028 60.1949 49.0784 60.5703L47.8672 63.4415Z" fill="#FCF8F4"/>
<path d="M48.5122 23.3212L49.9103 15.3301L44.6133 17.1205V25.3591L48.5122 23.3212ZM45.5091 17.9291L49.0226 16.642C49.0226 16.642 48.3381 17.1948 47.521 17.7518C46.795 18.2509 45.5091 18.7831 45.5091 18.7831V17.9291ZM45.5091 19.864L48.7239 18.7211C48.7239 18.7211 48.3381 19.1254 47.5251 19.6825C46.7993 20.1773 45.5134 20.7098 45.5134 20.7098V19.864H45.5091ZM45.5091 21.9183L48.3381 20.8377C48.3381 20.8377 48.3381 21.1799 47.521 21.7328C46.795 22.2321 45.5091 22.7641 45.5091 22.7641V21.9183Z" fill="#FCF8F4"/>
<path d="M39.0858 30.3875L39.2018 30.573H40.2927L40.3053 30.7628C40.3177 30.9444 40.3593 31.1299 40.4214 31.3199C40.5914 31.8355 40.9274 32.376 41.4667 32.8133C42.0929 33.3165 42.9975 33.6796 44.2003 33.6796C46.8094 33.6796 47.9874 32.0006 48.0993 30.7628L48.1076 30.573H49.2027L49.3188 30.3875C50.3476 28.7868 51.6044 27.0088 53.0644 26.7528L49.0824 24.4551L44.2003 27.0954L39.3138 24.4551L35.3359 26.7528C36.7961 27.0045 38.0529 28.7868 39.0858 30.3875Z" fill="#FCF8F4"/>
<path d="M43.7888 25.3591V17.1205L38.5 15.3301L39.8896 23.3212L43.7888 25.3591ZM42.8969 22.7724C42.8969 22.7724 41.6111 22.2362 40.8851 21.741C40.0679 21.1881 40.0679 20.8418 40.0679 20.8418L42.901 21.9224V22.7724H42.8969ZM42.8969 17.9291V18.7831C42.8969 18.7831 41.6111 18.2509 40.8851 17.7518C40.0638 17.1948 39.3751 16.642 39.3751 16.642L42.8969 17.9291ZM42.8969 19.864V20.7139C42.8969 20.7139 41.6111 20.1817 40.8851 19.6866C40.0638 19.1297 39.6823 18.7254 39.6823 18.7254L42.8969 19.864Z" fill="#FCF8F4"/>
<path d="M44.2044 11.8066C41.1806 11.8066 38.9117 12.7926 38.418 13.9476L44.2044 16.2208L49.9825 13.9476C49.4931 12.7926 47.2283 11.8066 44.2044 11.8066Z" fill="#FCF8F4"/>
<path d="M44.2067 8.50737C46.4343 8.50737 48.6659 9.17991 50.1674 10.0503C50.4122 9.24579 50.6736 8.6725 51.0303 8.01652L49.6615 8.22686L48.5539 5.87533L46.4841 6.96853L44.2067 4.72852L41.9256 6.96853L39.8599 5.87533L38.744 8.22686L37.375 8.01652C37.7317 8.6725 37.989 9.24579 38.2419 10.0503C39.7479 9.17991 41.971 8.50737 44.2067 8.50737Z" fill="#FCF8F4"/>
<path d="M81.9513 26.6171C82.6979 26.5224 83.2993 26.2749 84.0335 25.7302C82.4532 25.3137 79.1431 24.1214 76.3184 24.6577C75.3849 24.7815 74.8665 25.1569 75.1982 25.3714C76.7164 26.3738 78.5914 28.6966 79.9561 31.4069C81.1548 29.9259 80.653 27.9827 80.4001 27.4257C82.7891 28.8573 83.4154 29.5544 84.523 29.2824C83.9299 28.3788 83.0961 27.5661 81.9513 26.6171Z" fill="#FCF8F4"/>
<path d="M8.45369 31.4037C9.81835 28.6932 11.6933 26.3706 13.2156 25.3681C13.5556 25.1534 13.0289 24.7781 12.1039 24.6542C9.27495 24.1221 5.95654 25.3103 4.37617 25.7271C5.1186 26.2714 5.70769 26.5191 6.46268 26.614C5.31375 27.5669 4.47991 28.3755 3.88672 29.279C5.00252 29.5513 5.62474 28.8541 8.00991 27.4226C7.76519 27.9837 7.25904 29.9227 8.45369 31.4037Z" fill="#FCF8F4"/>
<path fill-rule="evenodd" clip-rule="evenodd" d="M25.0159 56.5597C26.1149 55.6934 27.0276 55.2602 26.982 53.1604C25.331 54.0018 20.6479 53.9566 18.6901 51.275C18.1384 50.5119 18.7275 50.1281 19.2624 50.7305C20.6021 52.2404 23.0829 51.5557 23.9871 51.1224C23.8418 50.6026 23.4396 49.926 23.1035 49.6372C23.4437 49.3072 24.4018 48.812 24.5967 47.9623C24.0865 47.6859 22.0996 47.4878 22.0996 47.4878C22.419 47.1826 22.8174 46.7575 22.5768 45.6231C20.5483 46.2419 18.0388 45.4005 17.4706 44.6536C16.9106 43.9193 17.483 43.2305 17.9559 43.7172C18.9678 44.7734 23.9539 45.9821 25.8081 44.1461C25.1193 43.9565 24.3605 43.346 24.2236 42.9664C25.9408 42.7932 27.3096 41.7865 27.4216 40.5323C26.4716 40.5323 24.6797 40.4623 24.0659 40.0084C24.8872 39.7073 25.4098 39.4103 25.6712 38.4944C22.531 38.3044 22.2822 35.9861 22.2657 35.6026C24.3106 36.774 27.911 36.2542 26.9777 33.3664C25.2771 33.2757 23.5638 30.5405 28.2388 28.0283C32.4904 25.7385 37.3229 23.2716 36.8956 19.2078C36.6177 16.6087 32.3163 14.8348 31.7688 13.5188C29.9726 14.3687 29.6117 15.3547 30.4206 17.009C30.4206 17.009 26.4177 17.405 26.1026 14.9545C25.9658 13.8572 26.7041 12.8299 27.4963 12.0419C27.0482 12.0419 24.0325 11.2374 23.1243 13.6798C21.436 12.533 19.9884 12.5741 18.8518 13.787C20.6687 14.8596 21.7927 18.5396 24.796 19.6246C22.6597 20.7756 19.2044 20.2929 17.1886 16.7532C15.2805 19.6121 14.1813 22.4423 18.2754 25.4661C10.8296 28.8365 10.8835 35.2806 4.40437 38.3499C5.05973 40.1032 6.44517 40.1032 8.21223 39.8311C5.41232 43.4492 7.79749 47.2361 3.36328 48.7833C3.77802 50.2602 4.61184 51.44 6.24614 51.0069C5.78158 51.7289 5.47469 51.7123 4.75284 52.5043C7.17526 54.0226 10.0499 52.9252 10.7011 48.053C10.8172 47.1826 12.0201 47.7272 11.6053 48.5811C8.8427 54.2619 15.828 58.5359 13.3557 62.7025C15.5334 62.6117 17.1967 62.4427 18.1011 61.7124C18.5449 62.5871 18.8145 63.4534 18.7149 64.3072C19.9178 64.0639 20.3574 63.3585 20.4404 62.5416C21.2286 64.8313 24.0492 67.2777 28.5623 67.2777C26.1689 63.8784 28.3964 60.4334 25.0159 56.5597ZM20.5608 60.7472L19.5985 62.3765C19.2543 61.304 18.6278 60.1901 18.2255 59.3981C17.45 60.9864 16.2262 61.0195 15.0481 61.0276C15.3095 57.224 10.5019 53.3997 12.6174 49.0597C13.0406 48.1934 12.7625 47.129 11.8542 46.6711C8.6313 45.0456 10.1244 51.7947 6.90562 52.0011C7.51961 51.2297 7.75178 49.6291 7.84318 49.4887C7.15859 49.6661 5.52017 50.7056 4.78186 49.3774C6.665 48.3585 7.20428 46.8237 7.49883 45.2848C7.8722 43.3376 8.04633 42.4342 8.42382 41.6339C8.82212 40.7798 9.45669 40.0373 10.8172 38.2841C10.4937 38.3293 6.87248 39.0927 6.05533 38.7131C12.3229 34.8845 10.9125 30.0207 20.4653 25.6849C17.96 23.8325 15.4007 22.3556 17.2342 18.82C19.8516 21.947 24.8251 20.8664 27.5128 19.4141C24.8581 18.886 21.436 16.5595 20.6271 13.9685C21.6268 13.8159 22.9251 14.8968 23.6677 15.4001C24.0284 14.443 24.1697 13.3332 25.3351 13.094C23.7796 16.3985 26.8492 18.1228 29.7778 18.1353C30.2339 18.1353 32.1255 17.9455 32.1255 17.9455C31.8227 17.3267 30.5989 15.6352 31.4866 14.9545C32.2043 15.6229 33.0586 16.1551 33.8345 16.7491C39.5295 21.1303 31.1299 25.1897 27.6954 27.0338C22.307 29.93 23.7505 33.3789 25.9988 34.2577C25.9905 34.6454 25.75 34.8187 25.3766 34.9425C23.8004 35.4622 22.3237 34.3442 21.0671 33.6264C21.1414 35.7881 20.9922 37.8673 23.3981 39.0554L21.7429 39.6537C23.1658 40.7302 23.6014 41.2998 25.3145 41.5226C24.5138 41.9103 23.5225 41.902 22.6721 41.9805C22.8877 42.5785 23.0621 43.3912 23.5099 43.9277C20.0049 44.3402 18.5989 42.3517 17.5121 42.43C15.1975 42.6032 15.3426 46.935 21.0378 46.9434L20.4489 47.9127C20.4489 47.9127 21.5272 48.54 22.5187 48.6594C22.1413 48.9646 21.7762 49.3773 21.4568 49.6908L22.3651 50.4707C20.0383 50.8831 19.3829 48.4243 17.8729 49.6084C15.5709 51.4236 20.6438 55.248 25.5053 54.6784C25.0987 55.1984 23.9539 55.9656 23.4645 56.3618C27.4257 60.083 25.472 63.5894 27.1021 66.1597C23.6843 65.9369 21.154 63.4409 20.5608 60.7472Z" fill="#24160B"/>
<path fill-rule="evenodd" clip-rule="evenodd" d="M14.3094 47.158C15.135 48.0119 16.1304 48.1026 18.0178 47.9828C15.9396 47.7314 14.774 47.2282 14.0482 45.8584C13.9445 45.149 13.8739 44.3898 13.8448 43.5812C13.7786 41.4071 14.5002 38.8162 16.0102 35.9778C16.0019 37.756 17.4164 40.553 20.5813 41.0192C17.7357 39.7816 16.0641 36.997 16.9765 34.3029C17.5697 33.3624 18.2377 32.3888 18.9843 31.4029C19.3577 30.9284 19.7226 30.4664 20.0793 30.0413C19.6977 31.4151 21.3694 32.8342 22.4892 33.0738C21.8837 32.4836 20.5813 30.5735 23.5885 27.3765C22.7506 27.7724 21.8214 28.3292 21.1164 28.8739C26.575 23.0075 31.0672 22.8424 33.1288 19.8887C30.1423 21.9183 22.2323 23.0157 18.6773 22.0545C20.6393 23.3582 25.364 23.2384 26.5211 22.9952C22.6719 26.7205 14.2598 30.5695 12.7996 33.9935C14.8487 31.7577 16.1761 31.349 17.9514 30.7757C16.5536 32.8508 15.2968 34.6744 14.4298 36.7905C12.19 41.6256 9.19513 41.6876 9 45.6727C10.0205 42.5828 12.0945 41.7989 13.5297 39.7692C13.2765 41.0645 13.1563 42.5002 13.202 44.1585C13.2518 45.9616 13.6168 47.5457 14.1933 48.9648C14.0482 50.9367 14.2223 54.3031 16.4955 56.5267C14.9524 54.5837 14.6206 51.4236 14.7575 50.1902C16.5369 53.6017 21.6101 58.3214 24.0614 61.4898C21.6101 57.4179 15.5995 52.6571 14.3094 47.158Z" fill="#24160B"/>
<path fill-rule="evenodd" clip-rule="evenodd" d="M70.4633 30.7757C72.2262 31.3532 73.5577 31.7616 75.6067 33.9976C74.1551 30.5735 65.7304 26.7244 61.8812 22.9993C63.0383 23.2386 67.767 23.3621 69.725 22.0585C66.1741 23.0199 58.2641 21.9225 55.2734 19.8926C57.3391 22.8465 61.8272 23.0116 67.29 28.8779C66.5892 28.3335 65.66 27.7766 64.8179 27.3804C67.821 30.5776 66.5226 32.4919 65.913 33.0817C67.0329 32.8425 68.7044 31.4234 68.3229 30.0496C68.6838 30.4744 69.0489 30.9367 69.4222 31.4109C70.1728 32.401 70.8366 33.3707 71.4299 34.3112C72.3423 37.0092 70.6665 39.7938 67.8291 41.0273C70.9942 40.5653 72.4129 37.7642 72.3962 35.9861C73.9103 38.8245 74.6319 41.4151 74.5657 43.5893C74.5366 44.3979 74.466 45.1529 74.3581 45.8666C73.628 47.2361 72.4624 47.7396 70.3885 47.9911C72.2801 48.1068 73.2715 48.02 74.1011 47.1663C72.811 52.6654 66.8005 57.4262 64.345 61.5022C66.8005 58.3337 71.8654 53.6141 73.653 50.2026C73.7899 51.4359 73.458 54.5961 71.9149 56.5393C74.1881 54.3156 74.3624 50.9491 74.2172 48.9772C74.7895 47.558 75.1505 45.974 75.2085 44.1709C75.2625 42.5126 75.134 41.0728 74.8848 39.7816C76.3242 41.8112 78.394 42.5951 79.4187 45.6851C79.2238 41.6959 76.2289 41.6338 73.9847 36.7988C73.1137 34.6702 71.861 32.8466 70.4633 30.7757Z" fill="#24160B"/>
<path fill-rule="evenodd" clip-rule="evenodd" d="M80.2028 39.8228C81.9654 40.0992 83.3509 40.0994 84.0104 38.346C77.5313 35.2765 77.5852 28.8368 70.1396 25.4622C74.2336 22.4425 73.1305 19.6083 71.2264 16.7493C69.2147 20.2887 65.7468 20.7716 63.619 19.6205C66.6138 18.5355 67.7463 14.8557 69.5632 13.7829C68.4266 12.5702 66.9749 12.5289 65.2863 13.6757C64.374 11.2335 61.3624 12.038 60.9105 12.038C61.6986 12.8219 62.4451 13.849 62.3042 14.9506C61.9929 17.4009 57.9902 17.005 57.9902 17.005C58.7991 15.3506 58.4383 14.3646 56.6421 13.5149C56.0946 14.8309 51.7973 16.6048 51.5152 19.204C51.0839 23.2675 55.9245 25.7345 60.1721 28.024C64.8467 30.5364 63.1336 33.2757 61.4371 33.3625C60.4955 36.2502 64.096 36.7699 66.1451 35.5985C66.1369 35.982 65.8755 38.3007 62.7356 38.4903C63.0009 39.4063 63.5196 39.7032 64.3408 40.0043C63.7267 40.4622 61.9349 40.5284 60.9893 40.5284C61.1013 41.7824 62.4742 42.7931 64.1914 42.9623C64.0545 43.3419 63.2912 43.9524 62.6069 44.1424C64.4611 45.978 69.4468 44.7691 70.4591 43.7132C70.9237 43.2262 71.4918 43.9154 70.9361 44.6497C70.3636 45.4005 67.8583 46.2422 65.8256 45.6192C65.5935 46.7495 65.9834 47.1787 66.3028 47.4839C66.3028 47.4839 64.3159 47.6818 63.8016 47.9582C63.9965 48.8081 64.9587 49.299 65.2948 49.6331C64.9546 49.922 64.5521 50.5987 64.4071 51.1183C65.3198 51.5556 67.8003 52.2363 69.1318 50.7266C69.6709 50.1282 70.26 50.5078 69.7082 51.2709C67.7504 53.9525 63.0673 53.9939 61.4122 53.1564C61.3666 55.2562 62.2792 55.6895 63.3784 56.5558C59.9937 60.4296 62.2295 63.8743 59.836 67.2655C64.345 67.2655 67.1655 64.8189 67.9536 62.5294C68.045 63.3421 68.4764 64.0517 69.6752 64.2951C69.5838 63.4412 69.8493 62.5748 70.2889 61.7002C71.2016 62.4305 72.865 62.5996 75.0426 62.6903C72.5745 58.5236 79.5597 54.2496 76.7889 48.5687C76.3783 47.7149 77.5811 47.1702 77.6972 48.0409C78.3442 52.913 81.2231 54.0102 83.6496 52.4921C82.9195 51.7001 82.6167 51.7167 82.1521 50.9945C83.7864 51.4277 84.6162 50.248 85.035 48.7709C80.6216 47.2279 83.0068 43.4409 80.2028 39.8228ZM80.5759 49.493C80.663 49.6331 80.8912 51.2339 81.5093 52.0053C78.2862 51.7991 79.7796 45.0498 76.5566 46.6753C75.6482 47.1291 75.3784 48.1935 75.7976 49.0639C77.9046 53.4037 73.1014 57.228 73.3711 61.0318C72.1846 61.0235 70.9528 60.9905 70.1852 59.4023C69.7913 60.1945 69.1566 61.3084 68.8124 62.3809L67.85 60.7513C67.2528 63.4493 64.7225 65.9413 61.3127 66.1681C62.9345 63.6019 60.9849 60.0955 64.9505 56.3702C64.4527 55.974 63.312 55.2068 62.9015 54.6868C67.7671 55.2562 72.8359 51.432 70.5336 49.6167C69.028 48.4327 68.3644 50.8915 66.0455 50.4789L66.9541 49.6992C66.6345 49.3858 66.2654 48.9774 65.8881 48.6678C66.8794 48.5482 67.9579 47.9212 67.9579 47.9212L67.3689 46.9517C73.0639 46.9434 73.2007 42.6116 70.8988 42.4384C69.8161 42.3599 68.4058 44.3527 64.9007 43.9358C65.3447 43.3996 65.527 42.5869 65.7427 41.9888C64.8966 41.9103 63.8968 41.9187 63.1005 41.5307C64.8135 41.3123 65.245 40.7387 66.6677 39.6662L65.0169 39.0638C67.4186 37.8715 67.265 35.7964 67.3398 33.6348C66.087 34.3526 64.602 35.4663 63.0383 34.9507C62.665 34.8271 62.4202 34.6537 62.4121 34.266C64.6645 33.3831 66.0995 29.9384 60.7155 27.0422C57.2849 25.1981 48.8814 21.1387 54.5723 16.7616C55.352 16.1676 56.1983 15.6311 56.9117 14.967C57.8036 15.6477 56.5841 17.3391 56.2813 17.9579C56.2813 17.9579 58.1728 18.1477 58.6209 18.1477C61.5533 18.1352 64.6269 16.4109 63.0715 13.1024C64.2371 13.3416 64.374 14.4595 64.7307 15.4126C65.4773 14.9093 66.7715 13.8324 67.7794 13.9851C66.9623 16.5718 63.5486 18.9027 60.8896 19.4308C63.5736 20.8829 68.5508 21.9639 71.1684 18.8367C73.0018 22.3723 70.4466 23.8491 67.9371 25.7014C77.494 30.0332 76.0796 34.9013 82.3512 38.7297C81.5425 39.1093 77.9087 38.346 77.5852 38.3007C78.9542 40.0539 79.5929 40.7963 79.9828 41.6504C80.3643 42.4508 80.5304 43.35 80.9077 45.3013C81.2064 46.8402 81.7498 48.375 83.6247 49.3939C82.8905 50.71 81.2563 49.6703 80.5759 49.493Z" fill="#24160B"/>
<path fill-rule="evenodd" clip-rule="evenodd" d="M35.0653 60.1407L36.4301 58.9899L36.2228 58.5773C36.0733 58.2802 36.1521 58.2636 36.3099 58.1483L37.0315 57.6161C37.1974 57.4799 37.3717 57.4965 37.5749 57.5459L39.7361 58.0493H37.4547C36.928 58.0821 36.7743 58.2843 36.5836 58.672L36.426 58.9899L35.8412 60.1862C35.6419 60.5988 35.5381 61.1474 36.0609 61.7663L36.4757 62.2572L35.6378 63.9445H36.3429L36.9236 62.7727C36.9694 62.7316 37.8281 61.9519 38.0104 61.1474C37.7616 60.9452 37.5875 60.8051 37.7243 60.5245L37.9855 59.9634C38.0728 59.7778 38.1018 59.7036 38.3506 59.7489L40.6154 60.2357C40.8974 60.3141 41.3123 60.4379 41.6151 59.984C41.9262 59.5138 41.9677 59.5633 42.6893 59.6334L43.8467 59.757C45.427 59.9057 47.0075 59.5138 47.6212 59.0269C47.837 59.5138 48.2643 59.8893 48.4633 60.2686C48.538 60.409 48.4138 60.6071 48.3181 60.8545L47.0198 63.9404H49.0234L50.1559 61.1267C50.2594 60.8588 50.4129 60.6441 50.529 60.5369L49.8777 63.9445H51.8232L52.3377 60.5741C52.4497 59.8232 52.3832 59.5838 52.0224 59.2744C51.2135 58.5937 51.2301 57.1664 50.9687 56.3002C51.1056 56.2217 51.2674 56.1804 51.4582 56.2051C51.8813 56.2421 52.2007 57.319 52.6985 58.0119C53.6941 59.4023 55.0503 60.9371 56.6059 58.7752C56.4565 58.5279 56.2947 58.3051 56.1039 58.0904L55.6684 57.5829C55.4155 57.3025 54.2126 55.9327 53.7106 55.442C52.5698 54.2993 50.8195 54.4725 50.1226 55.0294C48.5421 54.2042 46.8748 55.0705 46.4808 55.0377L43.7597 54.8726C43.6352 54.8643 43.4485 54.823 43.3157 54.6128L43.8218 54.4478C43.3489 52.4881 42.1585 50.8502 40.0802 50.5655C40.0802 50.5655 39.96 49.9469 39.6406 49.8271L39.0184 50.5533C38.8443 50.578 38.6533 50.6317 38.4958 50.6975L35.8412 49.7158L37.8322 51.7167C37.8322 51.7167 36.7993 53.1728 36.5048 53.4699C36.3099 53.7422 36.3262 53.9527 36.5461 54.2125L36.9321 54.7158C37.131 54.9756 37.3509 54.9675 37.6704 54.8066L38.1059 54.5798C38.2966 54.423 38.9353 54.7324 39.2092 54.4849C39.0351 55.0543 38.9479 55.6027 38.9064 56.0359L37.1188 55.8214C36.7287 55.768 36.5504 55.8214 36.314 56.007L34.7874 57.1746C34.2898 57.5542 34.1363 58.21 34.4432 58.8495L35.0653 60.1407ZM49.8322 60.4751L48.621 63.4453H47.8659L49.0773 60.5698C49.2016 60.1987 48.9653 60.0253 48.6626 59.621C49.1105 59.8727 49.434 60.0377 49.9774 60.244C49.9316 60.3266 49.8736 60.3719 49.8322 60.4751ZM38.1515 54.0435L37.8072 54.225C37.5667 54.361 37.4464 54.423 37.2389 54.167L37.0895 53.9774C37.015 53.8865 36.9901 53.668 37.1435 53.4948L38.6285 51.7744L37.2597 50.6564L39.0019 51.2958L39.6406 50.5038C39.8273 50.6606 39.7611 51.1184 39.7611 51.1184C40.4661 51.1184 42.5193 52.1333 42.5982 54.6747C42.5982 54.6747 43.0627 55.3552 43.6559 55.3924L46.6798 55.5739C47.1816 55.5739 48.4344 54.6251 50.0436 55.5203C50.4502 55.2769 50.8857 55.083 51.3338 55.0336C52.7524 54.9304 53.7976 55.9121 54.5734 56.9024C55.1417 57.6201 55.9215 58.7175 55.9215 58.7175C55.5855 59.1137 55.2577 59.2456 54.98 59.1465C54.5608 58.9322 54.424 58.5977 54.2914 58.1317C54.0799 57.3933 53.2627 56.7621 53.2627 56.7621C53.5406 57.2573 53.5986 57.8182 53.7313 58.3338C52.5492 57.1705 52.3251 55.7514 51.4997 55.5533C51.1348 55.4626 50.7075 55.6193 50.3134 56.0731C50.7283 57.0343 50.7075 58.1483 51.1348 58.895C51.4582 59.4518 51.5288 59.5014 51.6738 59.6251C52.0224 59.8727 51.8273 60.3224 51.7735 60.6482L51.3256 63.4412H50.5707L51.0683 60.7101C51.2218 59.8768 48.8699 59.8768 47.667 58.2885C46.6423 59.4806 43.7679 59.1837 42.5235 58.998C42.0216 58.9237 41.5322 58.9569 41.2584 59.4478C41.0967 59.7242 40.8269 59.6416 40.6612 59.6004L38.3919 59.1137C37.9939 59.0228 37.8196 59.1012 37.6455 59.4644L37.1933 60.3966C37.0938 60.6152 37.098 60.7762 37.2803 60.9537L37.4961 61.1805C37.3676 61.6259 36.9569 61.9685 36.9569 61.9685L36.4632 61.4157C36.2228 61.1352 36.2102 60.7309 36.401 60.3347L37.1353 58.8083C37.2223 58.6392 37.38 58.4577 37.6869 58.4577L40.4908 58.4162L39.6324 57.026C38.9934 55.9823 40.0553 54.1218 39.8935 53.243C39.8065 54.4187 38.3756 53.8825 38.1515 54.0435ZM35.107 57.5499L36.4341 56.5434C36.6707 56.366 36.8283 56.2506 37.098 56.2836L38.9729 56.5311C39.0764 56.9765 39.3751 57.4139 39.3751 57.4139L37.38 56.9971C37.098 56.9643 37.015 56.9765 36.7495 57.1664L35.8038 57.8759C35.6171 58.0204 35.6087 58.2515 35.7166 58.4783L35.8701 58.8043L35.2105 59.2993L34.9575 58.829C34.7005 58.3298 34.6838 57.8719 35.107 57.5499Z" fill="#24160B"/>
<path fill-rule="evenodd" clip-rule="evenodd" d="M40.8918 21.7368C41.6176 22.2362 42.9037 22.7684 42.9037 22.7684V21.9184L40.0703 20.8418C40.0703 20.8418 40.0703 21.1881 40.8918 21.7368Z" fill="#24160B"/>
<path fill-rule="evenodd" clip-rule="evenodd" d="M42.8982 20.7133V19.8634L39.6836 18.7207C39.6836 18.7207 40.0651 19.125 40.8866 19.6819C41.6125 20.177 42.8982 20.7133 42.8982 20.7133Z" fill="#24160B"/>
<path fill-rule="evenodd" clip-rule="evenodd" d="M42.8968 18.7835V17.9297L39.375 16.6426C39.375 16.6426 40.0637 17.1954 40.885 17.7523C41.6107 18.2513 42.8968 18.7835 42.8968 18.7835Z" fill="#24160B"/>
<path fill-rule="evenodd" clip-rule="evenodd" d="M52.793 30.3883H56.3932C56.2441 29.8685 55.6841 29.3447 54.6345 29.3447C53.6391 29.3447 53.0418 29.9138 52.793 30.3883Z" fill="#24160B"/>
<path fill-rule="evenodd" clip-rule="evenodd" d="M49.0253 16.6426L45.5117 17.9297V18.7835C45.5117 18.7835 46.7978 18.2513 47.5236 17.7523C48.3407 17.1954 49.0253 16.6426 49.0253 16.6426Z" fill="#24160B"/>
<path fill-rule="evenodd" clip-rule="evenodd" d="M48.3407 20.8418L45.5117 21.9224V22.7725C45.5117 22.7725 46.7978 22.2362 47.5236 21.7411C48.3407 21.1881 48.3407 20.8418 48.3407 20.8418Z" fill="#24160B"/>
<path fill-rule="evenodd" clip-rule="evenodd" d="M48.7224 18.7207L45.5078 19.8634V20.7133C45.5078 20.7133 46.7978 20.1811 47.5196 19.686C48.3409 19.125 48.7224 18.7207 48.7224 18.7207Z" fill="#24160B"/>
<path fill-rule="evenodd" clip-rule="evenodd" d="M33.7702 29.3447C32.7209 29.3447 32.1608 29.8685 32.0117 30.3883H35.6161C35.3591 29.9138 34.7699 29.3447 33.7702 29.3447Z" fill="#24160B"/>
<path fill-rule="evenodd" clip-rule="evenodd" d="M51.3568 14.3483C51.3568 12.335 47.9555 10.5322 44.2016 10.5322C40.4477 10.5322 37.0464 12.335 37.0464 14.3483L37.1251 14.8433L38.6185 23.3953L31.5254 27.5084C30.7703 27.9499 29.8247 29.1628 29.7044 30.384H30.9987C31.2143 29.1628 32.1806 27.8095 33.9934 27.8922C35.6318 27.9788 36.6025 28.9689 37.5647 30.384L37.8137 30.7553L38.1704 31.3122H27.7383C28.5056 32.8426 29.2315 34.4681 29.2315 36.2297V57.8016C29.2315 63.3503 33.5164 65.9949 38.158 65.9949C41.7419 65.9949 42.2271 65.8338 44.2057 67.8019C46.1762 65.8338 46.6613 65.9949 50.2535 65.9949C54.891 65.9949 59.1799 63.3503 59.1799 57.8016V36.2338C59.1799 34.4721 59.9059 32.8466 60.6732 31.3162H50.2329L50.5937 30.7593L50.8425 30.388C51.8007 28.973 52.7755 27.9829 54.4139 27.8962C56.2185 27.8137 57.193 29.1668 57.4047 30.388H58.6948C58.5784 29.1668 57.6286 27.9499 56.878 27.5126L49.7848 23.3994L51.2821 14.8473L51.3568 14.3483ZM38.498 15.33L43.7909 17.1205V25.3591L39.892 23.3211L38.498 15.33ZM39.8006 32.8098C40.4975 33.7584 41.6257 34.4598 42.9613 34.7321C43.0734 35.2312 43.3473 35.7799 43.8781 36.2214C43.6582 37.6942 44.2928 39.068 45.8857 39.431C46.0517 40.1819 46.5204 40.7469 47.3042 41.0152L46.1967 42.2858C45.7738 42.7726 45.2219 42.9294 44.7658 42.8716L39.8214 42.3147C40.037 41.7702 39.4647 41.139 37.9007 41.407L39.8462 36.0027L38.6599 33.4986L36.4117 35.4046L36.2458 41.0729L35.2918 40.6068C34.0348 40.0706 33.6699 42.3271 34.8646 42.3353L35.3374 42.3394C35.3083 42.5705 35.3789 42.8261 35.5615 42.9047C35.3374 42.9995 35.271 43.4204 35.553 43.5689C35.2669 43.7008 35.2295 44.13 35.4577 44.3156C35.2089 44.7322 35.1714 45.6356 36.0384 45.8626C36.7477 46.0483 37.1914 45.2893 37.3367 44.8476L45.027 47.2157C46.1179 47.5251 46.8895 47.3519 47.7938 46.5639L49.8015 44.8188C49.5483 45.9615 49.9632 46.9889 50.8384 47.3312C50.8384 47.3312 50.7139 48.3586 50.7513 48.8163H30.7289V36.2338C30.7289 35.0622 30.3887 33.8907 29.9825 32.8098H39.8006ZM48.0716 37.5827C47.6487 38.3872 47.69 39.3114 48.1877 40.1489L47.856 40.4705C46.4125 40.2932 45.8442 38.1521 45.8442 38.1521C45.8151 38.346 45.7986 38.5317 45.8029 38.7213C44.9608 38.4119 44.4296 37.6695 44.4713 36.6506C44.7908 36.8279 45.1475 36.9516 45.529 37.0177L45.6284 36.3904C44.6204 36.2172 44.0316 35.5903 43.8076 34.8475C43.7579 34.8434 43.7162 34.8313 43.6706 34.8269C43.849 34.8394 44.0275 34.856 44.2098 34.856C44.8071 34.856 45.3755 34.7651 45.9065 34.6083C46.3253 35.2024 47.0678 35.6273 47.8146 35.7097C47.6941 36.2049 47.7522 36.8196 48.0716 37.5827ZM50.2079 43.2429C50.0626 43.4369 49.9465 43.6596 49.8718 43.903L49.0672 44.6373C49.229 43.4657 48.4368 42.0836 47.7149 41.5185L48.5694 40.6852L48.7396 40.8585C48.4533 41.6051 49.0134 43.0697 50.2079 43.2429ZM46.3212 42.8757L46.9848 42.2281C47.6568 42.8139 48.5447 44.1217 48.2666 45.3676L47.5449 46.0277C47.3954 46.1721 47.2421 46.2752 47.0845 46.3699C47.5367 45.2603 46.9599 43.5523 46.3212 42.8757ZM44.8942 43.4244H44.915C45.1556 43.4616 45.413 43.4204 45.6451 43.3255C46.1512 44.0434 46.5452 45.677 45.9397 46.6959C45.5952 46.7043 45.2595 46.6422 44.9441 46.5516L44.6951 46.4773C45.2055 45.6893 45.1349 44.2948 44.8942 43.4244ZM43.2227 43.2182L44.156 43.3337C44.3054 44.1051 44.2057 45.4378 43.7121 46.1968L42.6253 45.8832C43.1025 45.2397 43.3265 43.9153 43.2227 43.2182ZM41.2773 42.9831L42.4097 43.115C42.5217 43.7338 42.31 45.0497 41.883 45.677L40.7297 45.347C41.1902 44.7405 41.3559 43.6721 41.2773 42.9831ZM36.6937 42.682C36.167 42.851 35.9347 42.4714 35.9555 42.1498C36.9883 41.7742 37.4487 42.0178 37.7514 42.2075C38.0293 42.3807 38.2618 42.8757 38.6349 43.1852C38.5727 43.6059 38.4441 44.2164 38.2907 44.6248C37.233 44.3568 37.1791 43.4285 37.5731 42.8635C37.3532 42.6077 37.1211 42.5416 36.6937 42.682ZM35.9555 44.7322C35.9555 44.7322 36.2708 44.8642 36.6689 44.8931C36.6233 45.1118 36.4531 45.318 36.1835 45.2603C35.9596 45.2108 35.8598 44.9386 35.9555 44.7322ZM34.9143 41.7206C34.6529 41.5474 34.7689 41.1678 35.0594 41.1678C35.3789 41.1761 35.8018 41.5349 36.221 41.7123C36.221 41.7123 35.1216 41.8608 34.9143 41.7206ZM35.9885 43.907C36.2169 44.1258 36.9012 44.0434 36.9012 44.0434L36.9262 44.1794C36.6275 44.5756 35.7977 44.3981 35.9885 43.907ZM36.9095 43.4574C36.4199 43.6513 35.9182 43.3874 36.0715 43.0737C36.2998 43.28 36.9344 43.1769 36.9344 43.1769L36.9095 43.4574ZM37.6313 37.7933L36.6937 41.1886L37.0132 35.7097L38.4648 34.4764L39.2033 36.0893L37.3367 41.4114L37.8304 37.8304C37.876 37.5746 37.6726 37.5457 37.6313 37.7933ZM37.6976 41.9104C37.6976 41.9104 38.7428 41.8608 39.0373 41.9723C39.253 42.063 39.108 42.4262 38.8258 42.3849C38.5314 42.3479 37.6976 41.9104 37.6976 41.9104ZM39.336 42.7356L40.4725 42.8757C40.5596 43.4946 40.3978 44.5424 39.9914 45.1282L38.8922 44.8107C39.1827 44.1217 39.253 43.474 39.336 42.7356ZM57.6824 57.8058C57.6824 60.4296 56.4632 62.4221 54.4346 63.5278L55.1606 62.0591H54.4555L53.5221 63.9402C52.5556 64.3034 51.4606 64.5055 50.2493 64.5055C46.5493 64.5055 45.5704 64.6541 44.2016 66.0113C42.8287 64.6541 41.8498 64.5055 38.1539 64.5055C36.951 64.5055 35.8557 64.3117 34.8935 63.9487H34.9184L35.8517 62.0591H35.1507L34.3334 63.7134C34.1386 63.6227 33.9478 63.5237 33.7654 63.4165L34.4373 62.0591H33.7405L33.2426 63.0699C31.6581 61.9106 30.7248 60.0955 30.7248 57.8058V49.5549H57.6742V57.8058H57.6824ZM58.4334 32.8098C58.0144 33.8907 57.6783 35.0622 57.6783 36.2338V48.8163H56.2059C55.5381 48.173 54.9739 46.0277 54.9739 46.0277C54.6089 46.7991 55.0279 48.3626 55.4178 48.8163H53.5221C53.0534 48.1852 52.6468 45.9493 52.6468 45.9493C52.0786 46.5927 52.4395 48.3296 52.7922 48.8163H51.5311C51.4521 47.9213 51.7095 46.9476 51.7095 46.9476C51.05 46.828 50.349 46.4814 50.3531 45.7553C50.6849 46.0647 50.8218 46.0605 51.2821 46.0524L51.8173 45.6315C50.042 45.6895 49.9591 43.7504 51.3693 42.8427C49.9632 42.8882 48.9137 42.0549 49.4239 40.5696C48.4242 40.054 48.0716 38.3707 48.81 37.6323C48.275 37.0546 48.1877 35.9203 48.528 35.1488C47.8187 35.1488 47.0224 34.8683 46.5784 34.3855C46.5452 34.4021 46.5038 34.4144 46.4664 34.427C47.3541 34.068 48.1048 33.5067 48.6109 32.8138H58.4334V32.8098ZM53.066 26.7535C51.6058 27.0053 50.349 28.7833 49.3202 30.388L49.2042 30.5736H48.1048L48.1007 30.7634C47.9887 32.0012 46.8066 33.6801 44.2016 33.6801C42.9987 33.6801 42.0901 33.313 41.4683 32.8138C40.9289 32.3765 40.5887 31.8359 40.4228 31.3204C40.3605 31.1349 40.3231 30.9449 40.3067 30.7634L40.2984 30.5736H39.2074L39.0913 30.388C38.0584 28.7874 36.8016 27.0093 35.3457 26.7535L39.3236 24.4556L44.2098 27.0959L49.0881 24.4556L53.066 26.7535ZM48.5113 23.3211L44.6163 25.3591V17.1205L49.9092 15.33L48.5113 23.3211ZM44.2057 16.2213L38.4194 13.9481C38.9088 12.7929 41.1778 11.8069 44.2057 11.8069C47.2295 11.8069 49.4943 12.7929 49.9838 13.9481L44.2057 16.2213Z" fill="#24160B"/>
<path fill-rule="evenodd" clip-rule="evenodd" d="M57.0636 40.9414L57.0762 40.3102C55.1306 40.2647 54.6827 37.9834 54.6827 37.9834C54.1145 39.6623 55.5995 40.9167 57.0636 40.9414Z" fill="#24160B"/>
<path fill-rule="evenodd" clip-rule="evenodd" d="M54.6105 44.8069L54.4156 44.2086C52.7565 44.6294 51.8979 42.0137 51.8979 42.0137C51.3669 43.9156 53.2168 45.2606 54.6105 44.8069Z" fill="#24160B"/>
<path fill-rule="evenodd" clip-rule="evenodd" d="M55.7611 42.3806C53.7783 42.6942 52.9655 40.4004 52.9655 40.4004C52.7455 41.6505 53.5586 42.917 54.8736 43.049C54.5749 44.6785 56.0972 45.5159 57.4162 44.9343L57.2254 44.3651C56.0806 44.7487 55.0064 43.6223 55.7611 42.3806Z" fill="#24160B"/>
<path fill-rule="evenodd" clip-rule="evenodd" d="M54.5739 35.8341L54.5904 35.2028C51.9729 34.6666 52.1928 32.876 52.1928 32.876C51.6288 34.5634 53.1137 35.8093 54.5739 35.8341Z" fill="#24160B"/>
<path fill-rule="evenodd" clip-rule="evenodd" d="M37.9921 62.0596L37.0547 63.9488H37.7599L38.6931 62.0596H37.9921Z" fill="#24160B"/>
<path fill-rule="evenodd" clip-rule="evenodd" d="M39.4061 62.0596L38.4727 63.9488H39.1821L40.1071 62.0596H39.4061Z" fill="#24160B"/>
<path fill-rule="evenodd" clip-rule="evenodd" d="M45.0739 62.0596L44.1406 63.9488H44.8415L45.779 62.0596H45.0739Z" fill="#24160B"/>
<path fill-rule="evenodd" clip-rule="evenodd" d="M46.4924 62.0596L45.5508 63.9488H46.2601L47.1892 62.0596H46.4924Z" fill="#24160B"/>
<path fill-rule="evenodd" clip-rule="evenodd" d="M43.6561 62.0596L42.7188 63.9488H43.424L44.3573 62.0596H43.6561Z" fill="#24160B"/>
<path fill-rule="evenodd" clip-rule="evenodd" d="M51.9336 63.9488H52.6387L53.572 62.0596H52.8667L51.9336 63.9488Z" fill="#24160B"/>
<path fill-rule="evenodd" clip-rule="evenodd" d="M40.8241 62.0596L39.8906 63.9488H40.5957L41.5292 62.0596H40.8241Z" fill="#24160B"/>
<path fill-rule="evenodd" clip-rule="evenodd" d="M42.2341 62.0596L41.3008 63.9488H42.0101L42.9434 62.0596H42.2341Z" fill="#24160B"/>
<path fill-rule="evenodd" clip-rule="evenodd" d="M39.0336 51.9023C38.905 51.9023 38.793 52.0262 38.793 52.187C38.793 52.3437 38.905 52.4716 39.0336 52.4716C39.1664 52.4716 39.2824 52.3437 39.2824 52.187C39.2783 52.0262 39.1664 51.9023 39.0336 51.9023Z" fill="#24160B"/>
<path fill-rule="evenodd" clip-rule="evenodd" d="M44.2048 9.25744C47.1084 9.25744 49.4354 10.2146 50.717 11.2417C50.717 11.2417 51.1029 8.94807 52.4012 6.93474L50.0617 7.1946L48.838 4.60387L46.4863 5.82087L44.2048 3.56836L41.9234 5.82087L39.5631 4.60387L38.3395 7.1946L36 6.93474C37.3024 8.94807 37.6841 11.2417 37.6841 11.2417C38.9701 10.2146 41.3011 9.25744 44.2048 9.25744ZM38.7418 8.22602L39.8577 5.87448L41.9234 6.96789L44.2048 4.72767L46.4863 6.96789L48.552 5.87448L49.6553 8.22602L51.0283 8.01568C50.6757 8.67164 50.4102 9.24494 50.1655 10.0495C48.6639 9.17906 46.4323 8.50652 44.2048 8.50652C41.969 8.50652 39.7415 9.17906 38.24 10.0495C37.9912 9.24494 37.7298 8.67164 37.373 8.01568L38.7418 8.22602Z" fill="#24160B"/>
<path fill-rule="evenodd" clip-rule="evenodd" d="M46.5942 4.62487C46.9342 4.65371 47.237 4.39795 47.2659 4.06384C47.2993 3.72563 46.8015 2.82617 46.8015 2.82617C46.8015 2.82617 46.059 3.62229 46.0341 3.96071C46.0009 4.29075 46.2581 4.59193 46.5942 4.62487Z" fill="#24160B"/>
<path fill-rule="evenodd" clip-rule="evenodd" d="M50.4253 6.00652C50.7282 6.16756 51.0972 6.04786 51.259 5.74669C51.4249 5.44959 51.317 4.43066 51.317 4.43066C51.317 4.43066 50.3298 4.87221 50.1681 5.17318C50.0104 5.47026 50.1267 5.84162 50.4253 6.00652Z" fill="#24160B"/>
<path fill-rule="evenodd" clip-rule="evenodd" d="M41.8132 4.62487C42.1575 4.59193 42.4106 4.29483 42.3815 3.96071C42.3485 3.62229 41.6141 2.82617 41.6141 2.82617C41.6141 2.82617 41.1206 3.72972 41.1497 4.06384C41.1745 4.39795 41.4773 4.65371 41.8132 4.62487Z" fill="#24160B"/>
<path fill-rule="evenodd" clip-rule="evenodd" d="M37.9825 6.00652C38.2853 5.84162 38.3972 5.47026 38.2395 5.17318C38.0819 4.87221 37.0906 4.43066 37.0906 4.43066C37.0906 4.43066 36.9869 5.44959 37.1529 5.74669C37.3064 6.04786 37.6797 6.16756 37.9825 6.00652Z" fill="#24160B"/>
<path fill-rule="evenodd" clip-rule="evenodd" d="M83.9631 26.9638C84.7802 26.6749 85.4107 25.8995 85.7259 25.1815C83.6478 24.8845 78.1268 22.5783 73.5888 24.4555C75.2897 22.8506 76.8161 22.6444 76.9612 20.3343C77.6663 20.8376 78.8569 21.1221 79.529 19.9216C79.0603 18.5478 77.878 19.6617 77.7121 19.2821C77.4796 18.754 79.2012 19.4432 79.5703 17.6568C78.2305 17.1989 77.8322 18.288 77.5918 18.0362C77.3717 17.7972 78.4422 17.339 77.654 15.8994C76.2602 16.712 76.9861 17.6238 76.6918 17.727C76.3348 17.8671 76.6169 16.7491 75.0739 16.8027C74.9204 18.4488 76.5215 18.5025 76.2602 18.7625C75.9408 19.08 75.526 17.8175 74.3605 18.4571C74.3812 19.7856 75.4638 20.5157 76.5795 20.2022C76.3972 22.727 74.0659 22.2567 72.332 25.1032C76.0072 26.9762 77.6704 30.2436 79.9313 32.5041C80.6779 31.9763 81.9555 29.6329 81.9555 29.6329C84.4027 31.5182 86.1241 29.6412 86.1241 29.6412C85.2821 28.783 85.2489 28.1314 83.9631 26.9638ZM80.3959 27.4218C80.6488 27.9788 81.1507 29.9217 79.9519 31.4028C78.5872 28.6923 76.7122 26.3697 75.194 25.3673C74.8623 25.1528 75.3766 24.7772 76.3142 24.6534C79.1389 24.1212 82.4531 25.3094 84.0293 25.7262C83.2951 26.2706 82.6978 26.5183 81.9473 26.6091C83.0921 27.5661 83.9298 28.3747 84.5188 29.2741C83.4112 29.5505 82.7849 28.8532 80.3959 27.4218Z" fill="#24160B"/>
<path fill-rule="evenodd" clip-rule="evenodd" d="M56.7979 69.5585V66.4727C54.4003 67.5661 51.3516 68.453 47.4277 68.8039L47.2492 69.9051C47.581 69.9506 48.0041 69.9918 48.5684 70.029C47.1164 70.2271 45.2374 70.322 44.2088 70.322C43.176 70.322 41.3011 70.2271 39.8451 70.029C40.4052 69.9918 40.8281 69.9506 41.1601 69.9051L40.9816 68.8039C37.0577 68.453 34.0049 67.5661 31.6114 66.4727V69.5585L28.3594 70.8871C30.7694 72.133 33.5403 73.1478 36.7423 73.9689L36.3608 75.2602C38.1943 75.7964 41.1268 76.3408 44.2005 76.3408C47.274 76.3408 50.2027 75.7924 52.04 75.2602L51.6626 73.9689C54.8608 73.1478 57.64 72.133 60.0499 70.8871L56.7979 69.5585ZM30.0973 70.9573L32.2917 70.0785V67.5661C33.7018 68.1064 35.5519 68.6675 38.2066 69.2163L36.9622 73.2468C34.2537 72.6282 31.9515 71.7947 30.0973 70.9573ZM44.2046 75.6024C41.7282 75.6024 39.3101 75.2353 37.2444 74.728L38.5592 70.4994C39.4304 70.7016 41.6122 70.9655 44.2046 70.9655C46.8013 70.9655 48.9708 70.6972 49.846 70.4994L51.1649 74.728C49.0909 75.2353 46.6768 75.6024 44.2046 75.6024ZM51.4512 73.2468L50.2068 69.2163C52.8614 68.6716 54.7114 68.1064 56.1217 67.5661V70.0785L58.312 70.9573C56.4579 71.7947 54.1639 72.6282 51.4512 73.2468Z" fill="#24160B"/>
<path fill-rule="evenodd" clip-rule="evenodd" d="M6.45384 29.6329C6.45384 29.6329 7.73144 31.9763 8.47387 32.5041C10.7386 30.2476 12.4061 26.9802 16.077 25.1032C14.339 22.2567 12.008 22.7353 11.8336 20.2022C12.9494 20.5157 14.028 19.7813 14.0529 18.4571C12.8832 17.8175 12.4684 19.0884 12.1531 18.7625C11.8919 18.4942 13.4887 18.4488 13.3395 16.8027C11.7964 16.7533 12.0784 17.8671 11.7176 17.727C11.4271 17.6238 12.1531 16.7078 10.7553 15.8994C9.97129 17.3433 11.0455 17.7972 10.8216 18.0362C10.5853 18.288 10.1788 17.2029 8.84292 17.6568C9.20394 19.4432 10.9335 18.754 10.7014 19.2821C10.5355 19.6617 9.35728 18.5478 8.89273 19.9216C9.55653 21.1263 10.7512 20.8416 11.452 20.3384C11.6015 22.6527 13.1238 22.8466 14.8285 24.4555C10.2866 22.5783 4.76563 24.8845 2.67912 25.1856C2.99857 25.8995 3.62902 26.6749 4.44616 26.9555C3.16035 28.1355 3.127 28.7874 2.28516 29.6412C2.28516 29.6412 4.0024 31.5182 6.45384 29.6329ZM3.88199 29.2782C4.4752 28.3787 5.30901 27.5661 6.46207 26.6132C5.70708 26.5183 5.11389 26.2706 4.37557 25.7262C5.95592 25.3094 9.27433 24.1172 12.1033 24.6534C13.0324 24.7772 13.5552 25.1528 13.215 25.3673C11.6968 26.3697 9.81773 28.6923 8.45307 31.4028C7.25843 29.9217 7.76457 27.9829 8.0093 27.4258C5.62413 28.8532 5.0019 29.5505 3.88199 29.2782Z" fill="#24160B"/>
<path fill-rule="evenodd" clip-rule="evenodd" d="M42.2188 27.9131V29.2704C42.6876 28.7053 43.6001 28.8166 43.6001 28.8166V30.7762C43.6001 30.7762 43.5669 31.7417 43.2268 32.1542H44.2099H45.1931C44.8486 31.7417 44.8197 30.7762 44.8197 30.7762V28.8206C44.8197 28.8206 45.728 28.7095 46.1968 29.2745V27.9171H44.2099H42.2188V27.9131Z" fill="#24160B"/>
<path d="M116.568 50.0959V36.9881H124.352V32.2183H103.117V36.9881H110.901V50.0959H116.568ZM132.099 42.6218V32.2183H126.62V50.0959H131.456L140.902 39.6923V50.0959H146.381V32.2183H141.545L132.099 42.6218ZM164.812 43.4482V50.0959H170.291V32.2183H164.812V38.7534H156.009V32.2183H150.53V50.0959H156.009V43.4482H164.812ZM185.549 50.0959C186.795 50.0959 187.93 49.9833 188.987 49.6826C191.822 48.8942 193.671 46.6031 193.671 43.4855C193.671 40.5186 192.087 38.4529 189.555 37.5138C188.343 37.0632 186.91 37.0255 185.549 37.0255H179.919V32.2183H174.44V50.0959H185.549ZM184.605 41.2321C185.36 41.2321 186.078 41.2321 186.72 41.4575C187.627 41.7578 188.155 42.5092 188.155 43.4106C188.155 44.3495 187.627 45.1383 186.758 45.5137C186.153 45.7768 185.549 45.7768 184.605 45.7768H179.919V41.2321H184.605ZM203.496 43.3355L210.032 50.0959H217.325L208.219 40.7814L216.985 32.2183H210.107L203.496 38.9412H201.984V32.2183H196.507V50.0959H201.984V43.3355H203.496ZM228.596 31.73C221.228 31.73 216.808 35.8614 216.808 41.1944C216.808 46.5279 221.228 50.6593 228.596 50.6593C235.928 50.6593 240.349 46.5279 240.349 41.1944C240.349 35.8614 235.928 31.73 228.596 31.73ZM228.596 46.3025C224.933 46.3025 222.592 44.1242 222.592 41.1944C222.592 38.2652 224.933 36.1241 228.596 36.1241C232.224 36.1241 234.604 38.2652 234.604 41.1944C234.604 44.1242 232.224 46.3025 228.596 46.3025ZM258.594 31.2041H253.116V33.0069C246.239 33.1572 242.121 36.0492 242.121 41.1571C242.121 46.2649 246.239 48.9316 253.116 49.0819V50.8846H258.594V49.0819C265.508 48.9316 269.627 46.2649 269.627 41.1571C269.627 36.0492 265.508 33.1572 258.594 33.0069V31.2041ZM253.116 45.2509C249.337 45.1006 247.676 43.5606 247.676 41.1571C247.676 38.7534 249.337 37.0255 253.116 36.8755V45.2509ZM258.594 36.8755C262.412 37.0255 264.035 38.7534 264.035 41.1571C264.035 43.5606 262.412 45.1006 258.594 45.2509V36.8755ZM287.855 31.2041H282.375V33.0069C275.5 33.1572 271.382 36.0492 271.382 41.1571C271.382 46.2649 275.5 48.9316 282.375 49.0819V50.8846H287.855V49.0819C294.77 48.9316 298.887 46.2649 298.887 41.1571C298.887 36.0492 294.77 33.1572 287.855 33.0069V31.2041ZM282.375 45.2509C278.598 45.1006 276.935 43.5606 276.935 41.1571C276.935 38.7534 278.598 37.0255 282.375 36.8755V45.2509ZM287.855 36.8755C291.671 37.0255 293.296 38.7534 293.296 41.1571C293.296 43.5606 291.671 45.1006 287.855 45.2509V36.8755Z" fill="#24160B"/>
</g>
<defs>
<clipPath id="clip0_596_18403">
<rect width="299" height="78" fill="white"/>
</clipPath>
</defs>
</svg>
