<svg width="71" height="21" viewBox="0 0 71 21" fill="none" xmlns="http://www.w3.org/2000/svg">
<path fill-rule="evenodd" clip-rule="evenodd" d="M11.0301 15.3638H7.99439C3.25871 15.3638 6.69918 5.25818 10.6861 5.25818H15.4825C16.2515 5.25818 17.6074 5.40053 18.2753 3.48918L19.3074 0.520508H12.7301C9.16823 0.520508 6.39558 1.78118 4.39204 3.89585C0.93134 7.51517 -0.242461 13.1678 0.587298 15.8722C1.37658 18.3732 3.52181 20.0202 6.8813 20.0609L9.49202 20.0812H12.7098L13.4991 17.7022C14.086 16.0145 12.7706 15.3638 11.0301 15.3638ZM47.9847 11.1752L48.9762 7.94219H38.3919C36.6312 7.94219 35.8419 8.43019 35.5383 9.44683L34.5467 12.6798H45.1311C46.8918 12.6798 47.6811 12.1918 47.9847 11.1752ZM32.9681 16.8685L31.9764 20.1015H42.5609C44.3014 20.1015 45.1109 19.6135 45.4145 18.5969L46.4061 15.3638H35.8217C34.0812 15.3638 33.2919 15.8518 32.9681 16.8685ZM50.4537 3.77385L51.4456 0.540841H40.8609C39.1002 0.540841 38.3109 1.02884 38.0074 2.04551L37.0157 5.27851H47.6002C49.3409 5.27851 50.1298 4.79051 50.4537 3.77385ZM34.4657 4.42451C34.0205 1.41518 32.4216 0.540841 28.5359 0.540841H21.4527L17.3241 12.6798H19.9348C21.4931 12.6798 22.2824 12.7002 23.1122 10.4635L24.8324 5.25818H27.4633C29.7098 5.25818 29.2038 8.08453 28.0705 10.8295C27.0586 13.2492 25.2979 15.3842 23.1729 15.3842H18.7813C17.0205 15.3842 16.211 15.8722 15.8872 16.8889L14.7944 20.1218H18.0122L21.1693 20.1015C23.9622 20.0812 26.2491 19.8778 28.9205 17.4582C31.7538 14.8758 35.0324 8.24717 34.4657 4.42451ZM70.0443 0.520508H63.9122L58.1442 6.68151C57.4762 7.39317 56.7882 8.10483 56.1201 8.93853H56.0594L58.9332 0.520508H53.9348L47.1954 20.1015H52.1942L54.3392 13.9405L56.5653 12.0495L58.3263 17.6209C58.8725 19.3492 59.4396 20.1015 60.6539 20.1015H64.4788L60.5524 9.16219L70.0443 0.520508Z" fill="#24160B" fill-opacity="0.6"/>
</svg>
