<svg width="76" height="21" viewBox="0 0 76 21" fill="none" xmlns="http://www.w3.org/2000/svg">
<g clip-path="url(#clip0_596_14662)">
<path fill-rule="evenodd" clip-rule="evenodd" d="M75.1996 1.204C75.1996 1.204 73.8015 1.02832 72.1494 1.02832C70.5395 1.02832 69.1836 1.204 69.1836 1.204V6.69397H75.1996V1.204Z" fill="#24160B" fill-opacity="0.6"/>
<path fill-rule="evenodd" clip-rule="evenodd" d="M75.1996 14.1606H69.1836V19.7385C69.1836 19.7385 70.8785 19.9141 72.2338 19.9141C73.5897 19.9141 75.1996 19.6945 75.1996 19.6945V14.1606Z" fill="#24160B" fill-opacity="0.6"/>
<path fill-rule="evenodd" clip-rule="evenodd" d="M65.5823 1.20459H58.1682L52.9996 7.92431H50.5848V1.20459H44.1875V19.7826H50.5848V12.7994H52.9149L58.1259 19.7826H66.0485L58.2954 9.90067L65.5823 1.20459Z" fill="#24160B" fill-opacity="0.6"/>
<path fill-rule="evenodd" clip-rule="evenodd" d="M20.2086 1.20459H0V19.7826H6.48201V6.47496H13.7265V19.7826H20.2086V1.20459Z" fill="#24160B" fill-opacity="0.6"/>
<path fill-rule="evenodd" clip-rule="evenodd" d="M23.3422 6.1238L22.4102 1.2048C22.4102 1.2048 28.4684 0.72168 32.239 0.72168C36.0096 0.72168 40.5428 1.2048 40.5428 1.2048C40.5428 1.2048 41.9409 4.9819 41.9409 10.2962C41.9409 15.6104 40.5004 19.7829 40.5004 19.7829C40.5004 19.7829 36.1791 20.266 32.1967 20.266C28.2143 20.266 22.4102 19.7829 22.4102 19.7829L23.3422 14.8638C23.3422 14.8638 27.4093 15.1713 30.8833 15.1713C34.3574 15.1713 35.713 14.8638 35.713 14.8638C35.713 14.8638 35.8825 13.9415 35.9673 12.8874H27.6635V8.14414H36.0096C35.9249 6.91439 35.7554 6.16773 35.7554 6.16773C35.7554 6.16773 32.9169 5.86029 30.502 5.86029C28.0448 5.81637 23.3422 6.1238 23.3422 6.1238Z" fill="#24160B" fill-opacity="0.6"/>
</g>
<defs>
<clipPath id="clip0_596_14662">
<rect width="75.2" height="20" fill="white" transform="translate(0 0.5)"/>
</clipPath>
</defs>
</svg>
