<svg width="92" height="21" viewBox="0 0 92 21" fill="none" xmlns="http://www.w3.org/2000/svg">
<path d="M2.58882 16.124L12.8024 18.04L13.5959 16.7019L4.51718 12.8695L2.58882 16.1246V16.124ZM7.3204 8.13837L15.2649 13.8891L16.0584 12.5504L9.24938 4.88318L7.32101 8.13837H7.3204ZM4.94721 12.146L14.0259 15.9796L14.8349 14.612L6.89037 8.86187L4.94721 12.146ZM11.8456 0.5L9.70159 4.12356L16.5112 11.792L17.5204 10.0922L11.8456 0.5ZM0 20.5H11.3484L12.3569 18.8002L2.144 16.8843L0 20.5ZM18.009 16.0229L20.6643 20.5H23.6832L18.009 10.9162L12.3348 20.5H15.3536L18.009 16.0229Z" fill="#24160B" fill-opacity="0.6"/>
<path d="M36.902 8.56275H40.8712L41.7832 7.10969H36.9025L36.902 8.56275ZM36.902 4.52806V5.98112H42.5053L43.4377 4.52806H36.902ZM47.2294 1.95918L43.0226 8.56275H45.0921L47.8626 4.20306L50.6535 8.56275H52.8321L48.6254 1.95918H47.2294ZM34.5888 7.10918L30.3821 0.5H28.946L24.7387 7.10918H23.6836V10.5H25.3578V8.56224H33.9691V10.5H35.6439V7.10918H34.5888ZM26.8352 7.10918L29.6058 2.74388L32.3967 7.10918H26.8352ZM92.0004 1.95918H83.825V3.41225H91.0607L92.0004 1.95918ZM45.0712 1.95918H36.9025V3.41225H44.1388L45.0712 1.95918ZM76.7929 4.32653H74.1247V1.95357H72.3685V8.56275H76.7793C77.9707 8.56275 79.2095 7.96837 79.2095 6.41071C79.2027 4.36327 77.6099 4.32653 76.7929 4.32653ZM76.6911 7.16531H74.1179V5.69388H76.6911C76.9902 5.69388 77.4465 5.76735 77.4465 6.42959C77.4465 7.04235 77.0722 7.16531 76.6911 7.16531ZM81.8376 1.95918H80.1017V8.56888H81.8376V1.95918ZM57.2571 1.79949C54.3226 1.79949 52.9345 3.41837 52.9345 5.22704C52.9345 7.11531 54.2886 8.65408 57.2571 8.65408C58.5502 8.65408 61.5452 8.1148 61.5452 5.22704C61.5452 3.33878 60.2046 1.79949 57.2571 1.79949ZM57.2367 7.20102C55.5416 7.20102 54.8269 6.32449 54.8269 5.24541C54.8269 4.06173 55.6434 3.27092 57.2367 3.27092C59.0336 3.27092 59.646 4.06173 59.646 5.24541C59.646 6.66174 58.4688 7.20102 57.2367 7.20102ZM83.825 8.56275H87.7937L88.7125 7.10969H83.825V8.56275ZM83.825 4.52806V5.98112H89.4272L90.3664 4.52806H83.825ZM69.2101 4.66939C69.6726 4.49133 70.0678 4.20357 70.0678 3.48571C70.0678 2.11837 68.7945 1.95918 67.896 1.95918H63.1516V8.56888H67.978C70.1899 8.56888 70.6462 7.47143 70.6462 6.46582C70.653 5.33163 69.9383 4.86531 69.2101 4.66939ZM64.8874 3.35714H67.6987C68.1205 3.35714 68.2975 3.55357 68.2975 3.93367C68.2975 4.32602 68.0187 4.52806 67.6987 4.52806H64.8874V3.35714ZM67.978 7.1648H64.8874V5.74847H67.978C68.4744 5.74847 68.8358 5.85867 68.8358 6.44745C68.8358 6.91327 68.6175 7.1648 67.978 7.1648Z" fill="#24160B" fill-opacity="0.6"/>
<path d="M66.1484 17.9538V13.2271H64.4176V20.4998H65.8665L70.0311 15.7393V20.4998H71.7614V13.2271H70.2328L66.1484 17.9538ZM79.5408 13.2271L75.4564 17.9538V13.2271H73.7262V20.4998H75.1812L79.3397 15.7393V20.4998H81.0699V13.2271H79.5408ZM60.722 16.0562H56.9329V13.2271H55.2021V20.4998H56.9329V17.6565H60.722V20.4998H62.4523V13.2271H60.722V16.0562ZM39.67 13.2271L35.5254 20.4998H37.5709L40.3006 15.6983L43.0502 20.4998H45.1899L41.0448 13.2271H39.67ZM47.6243 17.9133V13.2271H45.894V20.4998H47.3497L51.5143 15.7798V20.4998H53.2445V13.2271H51.7895L47.6243 17.9133Z" fill="#24160B" fill-opacity="0.6"/>
</svg>
