<svg width="32" height="32" viewBox="0 0 32 32" fill="none" xmlns="http://www.w3.org/2000/svg">
<path fill-rule="evenodd" clip-rule="evenodd" d="M0 16C0 7.16344 7.16344 0 16 0C24.8366 0 32 7.16344 32 16C32 24.8366 24.8366 32 16 32C7.16344 32 0 24.8366 0 16ZM16.0004 25.0672C21.3023 25.0672 25.6004 20.7691 25.6004 15.4672C25.6004 10.1653 21.3023 5.86719 16.0004 5.86719C10.6985 5.86719 6.40039 10.1653 6.40039 15.4672C6.40039 20.7691 10.6985 25.0672 16.0004 25.0672Z" fill="#24160B" fill-opacity="0.6"/>
<path fill-rule="evenodd" clip-rule="evenodd" d="M14.4285 24.1977C13.4004 23.5281 12.7442 22.0562 12.4581 20.8518C12.1889 19.7219 12.0644 18.2791 12.1014 16.3414C10.6914 14.9678 9.45295 13.6105 8.92292 12.3278C8.41477 11.0961 8.66379 9.41494 9.69188 8.56527C10.0772 8.24688 10.6039 8.03582 11.3257 8.034C11.2416 9.79701 12.4278 10.9469 14.0011 12.3715C15.0325 11.1725 16.3332 9.98987 17.6406 9.17114C18.6603 8.53252 19.6631 8.1177 20.5162 8.01945C21.408 7.91574 22.3183 8.22504 22.9039 8.9892C23.2842 9.48589 23.4911 10.1955 23.1916 11.1779C22.4546 11.2908 21.8186 11.4672 21.2616 11.691C20.4018 12.0385 19.8112 12.5916 19.1937 13.1265C18.063 14.1072 17.1089 15.1006 16.313 16.1177C16.2827 17.7551 16.2912 20.0185 16.7084 21.6105C16.9373 22.4838 17.3613 23.1915 18.1622 23.5845C16.9036 24.9782 15.4212 24.8436 14.4285 24.1977Z" fill="#24160B" fill-opacity="0.6"/>
</svg>
